<svg width="40" height="40" viewBox="0 0 40 40" fill="none" xmlns="http://www.w3.org/2000/svg">
<path d="M38.8756 20.2864C39.1348 9.60463 30.7474 0.73375 20.1418 0.472694C9.53617 0.211638 0.72851 8.65927 0.469314 19.341C0.210119 30.0227 8.59754 38.8936 19.2031 39.1547C29.8087 39.4157 38.6164 30.9681 38.8756 20.2864Z" fill="#EA1D25"/>
<path d="M37.6658 20.2616C37.9122 10.25 30.0538 1.93274 20.1135 1.68456C10.1732 1.43638 1.91522 9.35124 1.66882 19.3629C1.42241 29.3745 9.28085 37.6918 19.2211 37.9399C29.1614 38.1881 37.4194 30.2733 37.6658 20.2616Z" fill="#FFF200"/>
<path d="M19.6731 35.993C28.5438 35.993 35.7349 28.7502 35.7349 19.8159C35.7349 10.8815 28.5438 3.63879 19.6731 3.63879C10.8024 3.63879 3.61133 10.8815 3.61133 19.8159C3.61133 28.7502 10.8024 35.993 19.6731 35.993Z" fill="#00448F"/>
<path d="M25.3466 31.1443L25.1385 27.2888L19.8675 24.9435V24.8955L19.811 24.9204L19.7563 24.8955V24.9435L14.4853 27.2888L14.2754 31.1443L15.1645 34.3868L19.811 29.3516L24.4593 34.3868L25.3466 31.1443Z" fill="#790000"/>
<path d="M15.1498 30.5064H0.255859V34.385H15.1498V30.5064Z" fill="#9C0B0F"/>
<path d="M39.349 30.5064H24.4551V34.385H39.349V30.5064Z" fill="#9C0B0F"/>
<path d="M0.203125 5.27338V9.20172L9.98308 20.0291L12.04 17.6998L0.273686 5.30891L0.203125 5.27338Z" fill="#790000"/>
<path d="M39.3408 5.27338V9.20172L29.5608 20.0291L27.5039 17.6998L39.2702 5.30891L39.3408 5.27338Z" fill="#790000"/>
<path d="M39.3424 5.27338H24.3937L19.763 10.2713L15.1624 5.27338H0.203125L11.6695 17.8863L0.254284 30.51H15.15L19.763 25.4552L24.4061 30.51H39.3512L27.9165 17.8686L39.3424 5.27338Z" fill="#EA1D25"/>
<path d="M39.3424 5.27338H24.3937L19.763 10.2713L15.1624 5.27338H0.203125L11.6695 17.8863L0.254284 30.51H15.15L19.763 25.4552L24.4061 30.51H39.3512L27.9165 17.8686L39.3424 5.27338Z" fill="url(#paint0_linear_494_544)"/>
<path d="M4.41016 7.13895H14.3542L19.7575 13.0092L25.1979 7.13895H35.1401L25.4095 17.865L35.1578 28.6444H25.2155L19.7575 22.7048L14.3365 28.6444H4.44543L14.1778 17.8828L4.41016 7.13895Z" fill="#FFF200"/>
<path d="M35.1401 7.13895H25.1979L19.7575 13.0092L14.3542 7.13895H4.41016L14.1778 17.8828L4.44543 28.6444H14.3365L19.7575 22.7048L25.2155 28.6444H35.1578L25.4095 17.865L35.1401 7.13895Z" fill="url(#paint1_linear_494_544)"/>
<path d="M9.96154 19.775L0.253906 30.51H15.1496L19.7627 25.4552L24.4057 30.51H39.3508L28.2796 18.2684C19.5386 17.8935 13.1774 19.0075 9.95977 19.775H9.96154Z" fill="url(#paint2_linear_494_544)"/>
<path d="M0.204136 5.27338H15.1546L19.7852 10.2713L24.3841 5.27338H39.3434L27.8787 17.8863L39.294 30.51H24.3982L19.7852 25.4552L15.1422 30.51H0.195312L11.63 17.8686L0.204136 5.27338Z" fill="url(#paint3_linear_494_544)"/>
<path d="M37.8026 32.5692C37.8026 32.9903 37.4639 33.3314 37.0458 33.3314C36.6278 33.3314 36.2891 32.9903 36.2891 32.5692C36.2891 32.1481 36.6278 31.807 37.0458 31.807C37.4639 31.807 37.8026 32.1481 37.8026 32.5692Z" fill="white"/>
<defs>
<linearGradient id="paint0_linear_494_544" x1="3.75065" y1="34.0332" x2="36.0542" y2="1.96165" gradientUnits="userSpaceOnUse">
<stop offset="0.78" stop-color="white" stop-opacity="0"/>
<stop offset="1" stop-color="white" stop-opacity="0.6"/>
</linearGradient>
<linearGradient id="paint1_linear_494_544" x1="19.784" y1="28.6444" x2="19.784" y2="7.13895" gradientUnits="userSpaceOnUse">
<stop offset="0.57" stop-color="white" stop-opacity="0"/>
<stop offset="1" stop-color="#FFFBC8"/>
</linearGradient>
<linearGradient id="paint2_linear_494_544" x1="19.8015" y1="39.0809" x2="19.8015" y2="18.1955" gradientUnits="userSpaceOnUse">
<stop offset="0.46" stop-color="white" stop-opacity="0"/>
<stop offset="1" stop-opacity="0.3"/>
</linearGradient>
<linearGradient id="paint3_linear_494_544" x1="35.7976" y1="34.0332" x2="3.49403" y2="1.96164" gradientUnits="userSpaceOnUse">
<stop offset="0.78" stop-color="white" stop-opacity="0"/>
<stop offset="1" stop-color="white" stop-opacity="0.6"/>
</linearGradient>
</defs>
</svg>
