<svg width="48" height="48" viewBox="0 0 48 48" fill="none" xmlns="http://www.w3.org/2000/svg">
<path d="M0 24C0 10.7452 10.7452 0 24 0C37.2548 0 48 10.7452 48 24C48 37.2548 37.2548 48 24 48C10.7452 48 0 37.2548 0 24Z" fill="white"/>
<g clip-path="url(#clip0_309_693)">
<path d="M29.2463 18.193C30.2403 17.1048 30.8504 15.7209 30.9833 14.253C31.0219 13.9503 30.9907 13.6428 30.8921 13.3541C30.7935 13.0653 30.6301 12.8029 30.4145 12.587C30.1989 12.3711 29.9368 12.2074 29.6481 12.1085C29.3595 12.0095 29.0521 11.9779 28.7493 12.016C27.8389 12.0875 26.9548 12.3555 26.1579 12.8016C25.361 13.2477 24.6703 13.8613 24.1333 14.6C23.7934 13.7494 23.3127 12.962 22.7113 12.271C22.5247 12.086 22.2728 11.9819 22.0101 11.9812C21.7474 11.9805 21.4949 12.0832 21.3073 12.2671C21.1197 12.4511 21.012 12.7015 21.0075 12.9642C21.003 13.2269 21.1021 13.4808 21.2833 13.671C22.2747 14.9054 22.8548 16.4192 22.9423 18H20.5003C18.1812 18.0709 15.9847 19.0577 14.3916 20.7445C12.7985 22.4313 11.9387 24.6807 12.0003 27C11.8393 32.6 17.6443 37.773 22.7503 35.385C23.1403 35.1371 23.5935 35.007 24.0556 35.0103C24.5177 35.0137 24.9691 35.1504 25.3553 35.404C26.0082 35.7815 26.7464 35.9866 27.5003 36C37.7643 35.716 39.0663 20.582 29.2463 18.193ZM26.2233 15.168C26.999 14.4897 27.973 14.08 29.0003 14C28.9184 15.0252 28.5093 15.9969 27.8333 16.772C27.057 17.4499 26.0828 17.8595 25.0553 17.94C25.1366 16.9145 25.5462 15.9424 26.2233 15.168ZM27.5003 34C27.0596 33.9831 26.6309 33.8518 26.2563 33.619C25.5699 33.2226 24.793 33.0094 24.0003 33C23.2499 33.0175 22.5155 33.2212 21.8633 33.593C18.0053 35.261 13.9003 31.141 14.0003 27C13.9387 25.211 14.5878 23.4704 15.8058 22.1587C17.0239 20.847 18.7117 20.0708 20.5003 20H27.5003C36.1003 20.321 36.1003 33.682 27.5003 34Z" fill="#1C3F95"/>
</g>
<defs>
<clipPath id="clip0_309_693">
<rect width="24" height="24" fill="white" transform="translate(12 12)"/>
</clipPath>
</defs>
</svg>
