<svg width="48" height="48" viewBox="0 0 48 48" fill="none" xmlns="http://www.w3.org/2000/svg">
<path d="M0 24C0 10.7452 10.7452 0 24 0C37.2548 0 48 10.7452 48 24C48 37.2548 37.2548 48 24 48C10.7452 48 0 37.2548 0 24Z" fill="#E63946"/>
<path d="M27.4768 24.8901L28.9918 33.4161C29.0087 33.5165 28.9946 33.6197 28.9514 33.7119C28.9081 33.8041 28.8377 33.8808 28.7497 33.9319C28.6616 33.983 28.56 34.006 28.4586 33.9978C28.3571 33.9897 28.2605 33.9507 28.1818 33.8861L24.6018 31.1991C24.4289 31.07 24.219 31.0003 24.0033 31.0003C23.7875 31.0003 23.5776 31.07 23.4048 31.1991L19.8188 33.8851C19.7401 33.9496 19.6436 33.9885 19.5422 33.9967C19.4409 34.0049 19.3394 33.982 19.2514 33.931C19.1634 33.88 19.093 33.8035 19.0497 33.7115C19.0063 33.6195 18.992 33.5165 19.0088 33.4161L20.5228 24.8901" stroke="white" stroke-width="2" stroke-linecap="round" stroke-linejoin="round"/>
<path d="M24 26C27.3137 26 30 23.3137 30 20C30 16.6863 27.3137 14 24 14C20.6863 14 18 16.6863 18 20C18 23.3137 20.6863 26 24 26Z" stroke="white" stroke-width="2" stroke-linecap="round" stroke-linejoin="round"/>
</svg>
