<svg width="48" height="48" viewBox="0 0 48 48" fill="none" xmlns="http://www.w3.org/2000/svg">
<path d="M0 24C0 10.7452 10.7452 0 24 0C37.2548 0 48 10.7452 48 24C48 37.2548 37.2548 48 24 48C10.7452 48 0 37.2548 0 24Z" fill="white"/>
<g clip-path="url(#clip0_221_900)">
<path d="M24 12C21.6266 12 19.3066 12.7038 17.3332 14.0224C15.3598 15.3409 13.8217 17.2151 12.9135 19.4078C12.0052 21.6005 11.7676 24.0133 12.2306 26.3411C12.6936 28.6689 13.8365 30.8071 15.5147 32.4853C17.193 34.1635 19.3312 35.3064 21.6589 35.7694C23.9867 36.2324 26.3995 35.9948 28.5922 35.0866C30.7849 34.1783 32.6591 32.6402 33.9776 30.6668C35.2962 28.6935 36 26.3734 36 24C35.9966 20.8185 34.7312 17.7682 32.4815 15.5185C30.2318 13.2688 27.1815 12.0034 24 12V12ZM34 24C34.0012 25.9597 33.423 27.876 32.338 29.508L31.146 28.315C31.0525 28.2213 31 28.0944 31 27.962V27C31 26.2044 30.6839 25.4413 30.1213 24.8787C29.5587 24.3161 28.7957 24 28 24H25C24.7348 24 24.4804 23.8946 24.2929 23.7071C24.1054 23.5196 24 23.2652 24 23V22.5C24 22.3674 24.0527 22.2402 24.1465 22.1464C24.2402 22.0527 24.3674 22 24.5 22C25.163 22 25.7989 21.7366 26.2678 21.2678C26.7366 20.7989 27 20.163 27 19.5V18.5C27 18.3674 27.0527 18.2402 27.1465 18.1464C27.2402 18.0527 27.3674 18 27.5 18H28.879C29.5414 17.9981 30.1763 17.7351 30.646 17.268L31.023 16.891C31.9662 17.8191 32.7152 18.9256 33.2263 20.1462C33.7374 21.3667 34.0004 22.6768 34 24ZM14.049 24.963L17.207 28.121C17.4849 28.4007 17.8156 28.6224 18.1799 28.7733C18.5441 28.9242 18.9347 29.0013 19.329 29H22C22.2652 29 22.5196 29.1054 22.7071 29.2929C22.8946 29.4804 23 29.7348 23 30V33.949C20.7002 33.7142 18.5524 32.6912 16.9209 31.0533C15.2895 29.4155 14.2748 27.2637 14.049 24.963ZM25 33.949V30C25 29.2044 24.6839 28.4413 24.1213 27.8787C23.5587 27.3161 22.7957 27 22 27H19.329C19.1975 27.0001 19.0673 26.9743 18.9458 26.924C18.8243 26.8737 18.714 26.8 18.621 26.707L14.163 22.249C14.4492 20.6222 15.1347 19.0919 16.1582 17.7954C17.1816 16.4989 18.5109 15.4767 20.0268 14.8206C21.5427 14.1645 23.1977 13.895 24.8435 14.0363C26.4892 14.1775 28.0741 14.7252 29.456 15.63L29.232 15.854C29.1379 15.9468 29.0112 15.9992 28.879 16H27.5C26.837 16 26.2011 16.2634 25.7322 16.7322C25.2634 17.2011 25 17.837 25 18.5V19.5C25 19.6326 24.9473 19.7598 24.8536 19.8536C24.7598 19.9473 24.6326 20 24.5 20C23.837 20 23.2011 20.2634 22.7322 20.7322C22.2634 21.2011 22 21.837 22 22.5V23C22 23.7957 22.3161 24.5587 22.8787 25.1213C23.4413 25.6839 24.2044 26 25 26H28C28.2652 26 28.5196 26.1054 28.7071 26.2929C28.8946 26.4804 29 26.7348 29 27V27.962C29.0019 28.6244 29.2649 29.2593 29.732 29.729L31.069 31.066C29.4405 32.7002 27.2956 33.7191 25 33.949Z" fill="#1C3F95"/>
</g>
<defs>
<clipPath id="clip0_221_900">
<rect width="24" height="24" fill="white" transform="translate(12 12)"/>
</clipPath>
</defs>
</svg>
