<svg width="48" height="48" viewBox="0 0 48 48" fill="none" xmlns="http://www.w3.org/2000/svg">
<path d="M0 24C0 10.7452 10.7452 0 24 0C37.2548 0 48 10.7452 48 24C48 37.2548 37.2548 48 24 48C10.7452 48 0 37.2548 0 24Z" fill="#E63946"/>
<g clip-path="url(#clip0_221_983)">
<path d="M35.8362 20.7944C35.6316 20.1433 35.223 19.5754 34.6706 19.1745C34.1183 18.7736 33.4516 18.5611 32.7692 18.5684H28.4002L27.0732 14.4324C26.8645 13.7814 26.4545 13.2135 25.9022 12.8105C25.3499 12.4076 24.6839 12.1904 24.0002 12.1904C23.3165 12.1904 22.6505 12.4076 22.0982 12.8105C21.5459 13.2135 21.1359 13.7814 20.9272 14.4324L19.6002 18.5684H15.2312C14.5509 18.5694 13.8884 18.7853 13.3382 19.1853C12.788 19.5854 12.3782 20.149 12.1675 20.7958C11.9568 21.4426 11.9559 22.1395 12.1648 22.7868C12.3738 23.4342 12.7821 23.999 13.3312 24.4004L16.8872 27.0004L15.5352 31.1874C15.3167 31.8368 15.3139 32.5394 15.5273 33.1905C15.7407 33.8416 16.1587 34.4063 16.7192 34.8004C17.27 35.2072 17.9376 35.4251 18.6223 35.4217C19.3071 35.4183 19.9724 35.1937 20.5192 34.7814L24.0002 32.2194L27.4822 34.7784C28.032 35.1829 28.696 35.4026 29.3786 35.4059C30.0611 35.4092 30.7272 35.196 31.281 34.797C31.8347 34.3979 32.2477 33.8335 32.4605 33.1849C32.6733 32.5363 32.6749 31.837 32.4652 31.1874L31.1132 27.0004L34.6732 24.4004C35.2286 24.004 35.6416 23.4392 35.8511 22.7898C36.0605 22.1403 36.0553 21.4407 35.8362 20.7944ZM33.4932 22.7854L29.3492 25.8144C29.179 25.9386 29.0523 26.1134 28.9873 26.3138C28.9223 26.5142 28.9223 26.73 28.9872 26.9304L30.5622 31.8004C30.6419 32.0474 30.6412 32.3134 30.5602 32.56C30.4793 32.8066 30.3222 33.0211 30.1116 33.1728C29.901 33.3245 29.6477 33.4055 29.3882 33.4042C29.1287 33.4029 28.8762 33.3193 28.6672 33.1654L24.5922 30.1654C24.4206 30.0394 24.2132 29.9714 24.0002 29.9714C23.7872 29.9714 23.5798 30.0394 23.4082 30.1654L19.3332 33.1654C19.1243 33.3214 18.8711 33.4067 18.6105 33.409C18.3498 33.4114 18.0951 33.3307 17.8834 33.1786C17.6717 33.0265 17.5139 32.8109 17.433 32.5631C17.352 32.3153 17.3521 32.0482 17.4332 31.8004L19.0132 26.9304C19.0781 26.73 19.0781 26.5142 19.0131 26.3138C18.948 26.1134 18.8214 25.9386 18.6512 25.8144L14.5072 22.7854C14.2985 22.6326 14.1434 22.4178 14.0641 22.1716C13.9848 21.9254 13.9854 21.6604 14.0657 21.4145C14.146 21.1687 14.3019 20.9544 14.5112 20.8025C14.7206 20.6505 14.9725 20.5686 15.2312 20.5684H20.3312C20.5429 20.5684 20.7492 20.5012 20.9202 20.3765C21.0913 20.2518 21.2184 20.076 21.2832 19.8744L22.8332 15.0434C22.9128 14.7962 23.0687 14.5806 23.2786 14.4277C23.4885 14.2747 23.7415 14.1923 24.0012 14.1923C24.2609 14.1923 24.5139 14.2747 24.7238 14.4277C24.9337 14.5806 25.0896 14.7962 25.1692 15.0434L26.7192 19.8744C26.784 20.076 26.9111 20.2518 27.0821 20.3765C27.2532 20.5012 27.4595 20.5684 27.6712 20.5684H32.7712C33.0299 20.5686 33.2818 20.6505 33.4912 20.8025C33.7005 20.9544 33.8564 21.1687 33.9367 21.4145C34.017 21.6604 34.0175 21.9254 33.9383 22.1716C33.859 22.4178 33.7039 22.6326 33.4952 22.7854H33.4932Z" fill="white"/>
</g>
<defs>
<clipPath id="clip0_221_983">
<rect width="24" height="24" fill="white" transform="translate(12 12)"/>
</clipPath>
</defs>
</svg>
