<svg width="310" height="44" viewBox="0 0 310 44" fill="none" xmlns="http://www.w3.org/2000/svg">
<g clip-path="url(#clip0_369_478)">
<path d="M112.12 44H156.962V0H112.12V44ZM144.334 32.8209C143.194 33.4116 141.962 33.8767 140.696 34.1557C139.272 34.4976 137.817 34.6535 136.362 34.6535C134.494 34.6837 132.66 34.3745 130.92 33.7837C129.37 33.2558 127.976 32.4187 126.839 31.3C125.699 30.1813 124.812 28.8163 124.274 27.3256C123.672 25.6187 123.357 23.8163 123.388 22.0163C123.357 20.2466 123.672 18.4768 124.305 16.8001C124.874 15.3094 125.793 13.9444 126.964 12.8257C128.166 11.707 129.59 10.8372 131.14 10.2792C132.88 9.65823 134.748 9.37919 136.615 9.37919C137.945 9.37919 139.275 9.50237 140.571 9.81409C141.772 10.0931 142.943 10.4979 144.053 11.0559V15.8373C143.071 15.2164 141.995 14.7186 140.889 14.4094C139.718 14.0675 138.516 13.9117 137.281 13.9117C135.731 13.8815 134.212 14.1907 132.852 14.8745C131.65 15.4954 130.669 16.4582 130.036 17.607C129.339 18.9746 129.024 20.4628 129.055 21.9862C129.024 23.5071 129.339 24.9978 130.005 26.3653C130.607 27.5443 131.555 28.5071 132.759 29.128C134.12 29.7791 135.608 30.121 137.128 30.0908C139.692 30.0908 142.19 29.4071 144.342 28.0722V32.8234L144.334 32.8209ZM78.5427 23.6906H74.0183V30.3674H78.4812C80.0005 30.3674 81.2021 30.0883 82.0245 29.5277C82.8469 28.9697 83.2901 28.0697 83.2593 27.0742C83.2286 24.8067 81.676 23.6906 78.5453 23.6906M77.8792 13.6301H74.0183V19.779H77.8792C79.2088 19.779 80.2208 19.5 80.9177 18.9419C81.6145 18.3511 82.0245 17.4813 81.963 16.5814C81.963 14.6256 80.6026 13.6326 77.8817 13.6326M78.5427 23.6906H74.0183V30.3674H78.4812C80.0005 30.3674 81.2021 30.0883 82.0245 29.5277C82.8469 28.9697 83.2901 28.0697 83.2593 27.0742C83.2286 24.8067 81.676 23.6906 78.5453 23.6906M80.9177 18.9419C81.6145 18.3511 82.0245 17.4813 81.963 16.5814C81.963 14.6256 80.6026 13.6326 77.8817 13.6326H74.0208V19.7815H77.8817C79.2114 19.8117 80.2234 19.5327 80.9202 18.9444M56.0767 44H100.919V0H56.0767V44ZM87.3406 31.0511C86.5182 32.1698 85.3781 33.0069 84.0817 33.5047C82.4369 34.1256 80.7281 34.4046 78.9552 34.3745H68.8917V9.62555H78.3531C81.138 9.62555 83.2901 10.1836 84.8401 11.2721C86.3593 12.3581 87.151 13.9418 87.151 15.9906C87.1817 17.0766 86.8974 18.1324 86.3286 19.0651C85.7265 19.965 84.9041 20.679 83.8922 21.1139C85.2526 21.5186 86.4567 22.3255 87.3098 23.4115C88.1015 24.5302 88.5447 25.8651 88.4807 27.2301C88.5447 28.5976 88.1322 29.9325 87.3406 31.0486M78.5427 23.6906H74.0183V30.3674H78.4812C80.0005 30.3674 81.2021 30.0883 82.0245 29.5277C82.8469 28.9697 83.2901 28.0697 83.2593 27.0742C83.2286 24.8067 81.676 23.6906 78.5453 23.6906M80.9177 18.9419C81.6145 18.3511 82.0245 17.4813 81.963 16.5814C81.963 14.6256 80.6026 13.6326 77.8817 13.6326H74.0208V19.7815H77.8817C79.2114 19.8117 80.2234 19.5327 80.9202 18.9444M22.4686 23.6906H17.9441V30.3674H22.4071C23.9264 30.3674 25.1279 30.0883 25.9503 29.5277C26.7727 28.9697 27.2467 28.0697 27.1852 27.0742C27.1852 24.8067 25.6019 23.6906 22.4712 23.6906M21.8358 13.6301H17.9441V19.779H21.8358C23.1655 19.779 24.1774 19.5 24.8743 18.9419C25.5712 18.3511 25.9811 17.4813 25.9196 16.5814C25.9196 14.6256 24.5592 13.6326 21.8383 13.6326M22.4686 23.6906H17.9441V30.3674H22.4071C23.9264 30.3674 25.1279 30.0883 25.9503 29.5277C26.7727 28.9697 27.2467 28.0697 27.1852 27.0742C27.1852 24.8067 25.6019 23.6906 22.4712 23.6906M24.8743 18.9419C25.5712 18.3511 25.9811 17.4813 25.9196 16.5814C25.9196 14.6256 24.5592 13.6326 21.8383 13.6326H17.9467V19.7815H21.8383C23.168 19.8117 24.18 19.5327 24.8769 18.9444M0 44H44.8424V0H0V44ZM31.2664 31.0511C30.444 32.1698 29.304 33.0069 27.9743 33.5047C26.3602 34.1256 24.6207 34.4046 22.8478 34.3745H12.8483V9.62555H22.3098C25.0946 9.62555 27.2774 10.1836 28.7967 11.2721C30.316 12.3581 31.1076 13.9418 31.1076 15.9906C31.1383 17.0766 30.854 18.1324 30.2852 19.0651C29.6831 19.965 28.8607 20.679 27.8488 21.1139C29.2092 21.5186 30.4133 22.3255 31.2664 23.4115C32.0888 24.5302 32.5013 25.8651 32.4373 27.2301C32.468 28.5976 32.0581 29.9325 31.2664 31.0486M22.4686 23.6906H17.9441V30.3674H22.4071C23.9264 30.3674 25.1279 30.0883 25.9503 29.5277C26.7727 28.9697 27.2467 28.0697 27.1852 27.0742C27.1852 24.8067 25.6019 23.6906 22.4712 23.6906M24.8743 18.9419C25.5712 18.3511 25.9811 17.4813 25.9196 16.5814C25.9196 14.6256 24.5592 13.6326 21.8383 13.6326H17.9467V19.7815H21.8383C23.168 19.8117 24.18 19.5327 24.8769 18.9444" fill="black"/>
<path d="M196.012 5.49536H202.973V38.5023H195.631C193.194 34.651 190.694 30.8023 188.193 26.9511C185.693 23.0999 183.192 19.3442 180.756 15.7117V38.5023H173.795V5.49536H181.138C183.669 9.22089 186.169 12.9464 188.636 16.6745C191.104 20.4 193.543 24.2186 196.01 28.0698V5.49536H196.012Z" fill="black"/>
<path d="M216.865 32.6048H233.669V38.5023H209.65V5.49536H232.783V11.4281H216.865V18.5674H231.012V24.4674H216.865V32.6048Z" fill="black"/>
<path d="M274.651 5.49536H282.403C281.074 11.0837 279.682 16.6418 278.227 22.1698C276.739 27.665 275.222 33.1302 273.608 38.5023H265.95C264.874 34.7767 263.829 31.0512 262.817 27.3232C261.805 23.5976 260.79 19.8721 259.842 16.144C258.894 19.8696 257.944 23.5951 256.932 27.3232C255.92 31.0487 254.875 34.7767 253.832 38.5023H246.174C244.56 33.1302 243.041 27.665 241.555 22.1698C240.066 16.6745 238.675 11.1163 237.379 5.49536H245.29C246.082 9.78148 246.904 14.0349 247.791 18.3185C248.677 22.6047 249.594 26.7952 250.576 30.9255C252.664 22.8837 254.657 14.872 256.558 6.86038H263.614C264.564 10.8046 265.512 14.7162 266.493 18.6604C267.475 22.572 268.487 26.486 269.532 30.3976C270.482 26.3302 271.366 22.1999 272.253 18.0093C273.075 13.8791 273.897 9.68847 274.658 5.49536" fill="black"/>
<path d="M309.997 28.8163C309.997 30.9908 309.459 32.8838 308.352 34.4373C307.15 36.0512 305.503 37.2931 303.605 38.0095C301.547 38.8165 299.047 39.2212 296.136 39.2212C294.302 39.2212 292.465 39.005 290.661 38.6304C288.858 38.2257 287.118 37.6048 285.471 36.735V30.3397C288.668 32.2955 292.37 33.3513 296.167 33.3513C298.288 33.3513 299.933 33.0095 301.04 32.2955C302.085 31.6746 302.749 30.5559 302.718 29.3468C302.782 28.5097 302.465 27.7002 301.896 27.112C301.263 26.5212 300.535 26.0863 299.713 25.8073C298.701 25.4654 297.686 25.1562 296.644 24.9073C294.966 24.5353 293.352 24.0375 291.737 23.4166C290.441 22.9515 289.237 22.2678 288.161 21.4608C287.213 20.7469 286.452 19.8142 285.945 18.7283C285.407 17.5166 285.153 16.2446 285.186 14.9097C285.122 12.9841 285.694 11.0912 286.801 9.50743C287.971 7.95638 289.555 6.7447 291.389 6.03077C293.352 5.22382 295.724 4.81909 298.447 4.81909C300.22 4.81909 301.991 5.00512 303.733 5.40985C305.347 5.7819 306.897 6.30981 308.385 7.02374V13.2958C306.93 12.426 305.347 11.7749 303.702 11.3702C301.993 10.9051 300.22 10.6864 298.45 10.6864C296.551 10.6864 295.063 10.9981 294.02 11.6492C293.008 12.2073 292.406 13.2958 292.437 14.412C292.406 15.1561 292.66 15.9027 293.195 16.4608C293.797 17.0188 294.525 17.4537 295.347 17.7026C296.265 18.0143 297.371 18.3537 298.606 18.6352C300.22 19.04 301.706 19.4724 303.069 19.9399C304.365 20.3748 305.6 20.9957 306.707 21.7725C307.752 22.4865 308.575 23.4493 309.144 24.5981C309.746 25.933 310.03 27.3608 309.999 28.8214" fill="black"/>
</g>
<defs>
<clipPath id="clip0_369_478">
<rect width="310" height="44" fill="white"/>
</clipPath>
</defs>
</svg>
