<svg width="130" height="130" viewBox="0 0 130 130" fill="none" xmlns="http://www.w3.org/2000/svg">
<g clip-path="url(#clip0_369_487)">
<path d="M65 130C100.899 130 130 100.899 130 65C130 29.1015 100.899 0 65 0C29.1015 0 0 29.1015 0 65C0 100.899 29.1015 130 65 130Z" fill="#097798"/>
<path d="M64.9999 126.826C99.1455 126.826 126.826 99.1455 126.826 64.9999C126.826 30.8543 99.1455 3.17383 64.9999 3.17383C30.8543 3.17383 3.17383 30.8543 3.17383 64.9999C3.17383 99.1455 30.8543 126.826 64.9999 126.826Z" fill="white"/>
<path d="M65.0007 125.6C98.3518 125.6 125.388 98.5486 125.388 65.1794C125.388 31.8101 98.3518 4.75903 65.0007 4.75903C31.6497 4.75903 4.61328 31.8101 4.61328 65.1794C4.61328 98.5486 31.6497 125.6 65.0007 125.6Z" fill="#102A4D"/>
<path d="M104.012 65.238C104.012 43.693 86.5449 26.2261 65.0002 26.2261C43.4554 26.2261 25.9883 43.6923 25.9883 65.238C25.9883 86.7836 43.4532 104.25 65.0002 104.25C86.5471 104.25 104.012 86.7829 104.012 65.238Z" fill="white"/>
<path d="M53.7971 75.6145L51.5205 76.6841C51.4468 76.7273 51.3849 76.788 51.3405 76.8609C51.296 76.9338 51.2703 77.0166 51.2656 77.1019V94.0264C51.2706 94.1113 51.2964 94.1937 51.3409 94.2662C51.3854 94.3388 51.4471 94.3992 51.5205 94.4421L53.7983 95.5087C53.8267 95.5255 53.8592 95.5339 53.8921 95.533C53.925 95.5321 53.9569 95.522 53.9844 95.5038C54.0118 95.4856 54.0335 95.46 54.0471 95.4301C54.0607 95.4001 54.0656 95.3669 54.0612 95.3343V75.7889C54.0657 75.7561 54.0609 75.7227 54.0473 75.6925C54.0337 75.6623 54.0118 75.6366 53.9841 75.6184C53.9565 75.6001 53.9243 75.5901 53.8912 75.5894C53.8581 75.5887 53.8254 75.5974 53.7971 75.6145Z" fill="#102B4E"/>
<path d="M59.615 74.0032L57.3785 74.4656C57.3008 74.4869 57.2318 74.5325 57.1817 74.5956C57.1315 74.6588 57.1028 74.7363 57.0996 74.8169V96.3101C57.1027 96.3907 57.1314 96.4683 57.1816 96.5315C57.2317 96.5948 57.3007 96.6404 57.3785 96.6617L59.6153 97.1241C59.6499 97.1321 59.6859 97.1319 59.7204 97.1236C59.7549 97.1153 59.787 97.0992 59.8142 97.0764C59.8415 97.0537 59.863 97.0249 59.8773 96.9924C59.8916 96.9599 59.8981 96.9246 59.8964 96.8891V74.2384C59.8979 74.2029 59.8912 74.1676 59.8769 74.1352C59.8626 74.1028 59.841 74.074 59.8137 74.0513C59.7865 74.0286 59.7544 74.0124 59.72 74.004C59.6855 73.9957 59.6496 73.9954 59.615 74.0032Z" fill="#102B4E"/>
<path d="M66.0499 73.5561C66.0499 73.5561 65.5379 73.5435 65.134 73.5435C64.5969 73.5435 63.8279 73.5709 63.8279 73.5709C63.7512 73.5747 63.6789 73.6075 63.6256 73.6627C63.5723 73.7179 63.542 73.7914 63.541 73.8681V97.2583C63.5418 97.3351 63.572 97.4087 63.6253 97.464C63.6787 97.5192 63.7512 97.552 63.8279 97.5555C63.8279 97.5555 64.5969 97.583 65.134 97.583C65.5379 97.583 66.0499 97.5681 66.0499 97.5681C66.1261 97.5653 66.1984 97.5333 66.2516 97.4785C66.3049 97.4238 66.335 97.3507 66.3357 97.2744V73.8499C66.335 73.7735 66.3049 73.7004 66.2517 73.6457C66.1985 73.5909 66.1262 73.5589 66.0499 73.5561Z" fill="#102B4E"/>
<path d="M72.4994 74.3719L70.265 73.9402C70.2301 73.933 70.194 73.9338 70.1595 73.9426C70.125 73.9513 70.0929 73.9679 70.0657 73.9909C70.0385 74.0139 70.0169 74.0428 70.0025 74.0753C69.9881 74.1079 69.9813 74.1434 69.9826 74.179V96.9474C69.9812 96.9831 69.9879 97.0186 70.0022 97.0513C70.0165 97.084 70.0381 97.113 70.0653 97.1361C70.0926 97.1592 70.1247 97.1758 70.1593 97.1847C70.1939 97.1935 70.23 97.1944 70.265 97.1871L72.4994 96.7556C72.5775 96.736 72.6471 96.6916 72.6977 96.6291C72.7483 96.5665 72.7772 96.4891 72.78 96.4087V74.7195C72.7768 74.6391 72.7478 74.5619 72.6972 74.4992C72.6467 74.4366 72.5773 74.392 72.4994 74.3719Z" fill="#102B4E"/>
<path d="M78.4756 76.5345L76.202 75.5084C76.1732 75.4922 76.1404 75.4842 76.1073 75.4855C76.0742 75.4868 76.0421 75.4972 76.0146 75.5157C75.9871 75.5341 75.9653 75.5598 75.9516 75.59C75.9379 75.6201 75.9328 75.6535 75.937 75.6863V95.4363C75.9328 95.4692 75.9378 95.5026 75.9515 95.5328C75.9652 95.563 75.987 95.5888 76.0144 95.6073C76.0419 95.6259 76.074 95.6364 76.1071 95.6378C76.1402 95.6392 76.173 95.6314 76.202 95.6153L78.4756 94.5917C78.5498 94.55 78.6122 94.4902 78.6571 94.418C78.702 94.3458 78.728 94.2634 78.7327 94.1785V76.9476C78.728 76.8627 78.702 76.7803 78.6571 76.7082C78.6121 76.636 78.5497 76.5762 78.4756 76.5345Z" fill="#102B4E"/>
<path d="M87.3648 63.1507H42.6325C42.5972 63.1491 42.5619 63.1557 42.5295 63.17C42.4971 63.1844 42.4685 63.206 42.4458 63.2332C42.4231 63.2604 42.4071 63.2925 42.3988 63.3269C42.3906 63.3614 42.3905 63.3973 42.3984 63.4318L43.3269 67.8641C43.3487 67.9418 43.3945 68.0107 43.4578 68.0608C43.5211 68.1109 43.5986 68.1397 43.6792 68.143H86.3208C86.4014 68.1396 86.4789 68.1108 86.5422 68.0607C86.6055 68.0106 86.6513 67.9418 86.6731 67.8641L87.6004 63.4318C87.6083 63.3971 87.6081 63.3611 87.5998 63.3266C87.5915 63.292 87.5753 63.2599 87.5525 63.2327C87.5297 63.2054 87.5008 63.1838 87.4683 63.1696C87.4357 63.1554 87.4003 63.1489 87.3648 63.1507Z" fill="#102B4E"/>
<path d="M84.2803 69.5241H45.7203C45.6854 69.5221 45.6505 69.5284 45.6186 69.5426C45.5866 69.5569 45.5585 69.5785 45.5366 69.6058C45.5147 69.6331 45.4997 69.6652 45.4927 69.6994C45.4857 69.7337 45.487 69.7692 45.4965 69.8028L45.8811 71.4118C45.9042 71.4895 45.951 71.558 46.015 71.6078C46.079 71.6575 46.1569 71.6861 46.2379 71.6894H83.7615C83.8425 71.6861 83.9204 71.6575 83.9844 71.6077C84.0483 71.558 84.0952 71.4894 84.1183 71.4118L84.5039 69.8028C84.5136 69.7692 84.515 69.7337 84.5081 69.6994C84.5012 69.6651 84.4861 69.6329 84.4642 69.6056C84.4423 69.5783 84.4142 69.5567 84.3822 69.5425C84.3502 69.5283 84.3152 69.522 84.2803 69.5241Z" fill="#102B4E"/>
<path d="M78.2895 43.0466L69.557 42.2363C69.3763 42.2094 69.2047 42.1393 69.0568 42.032C68.9089 41.9247 68.789 41.7833 68.7073 41.6199L65.2395 33.57C65.1729 33.4149 65.0845 33.3394 64.9974 33.3394C64.9103 33.3394 64.8229 33.4149 64.7562 33.57L61.2882 41.6206C61.2064 41.784 61.0865 41.9253 60.9386 42.0326C60.7907 42.1399 60.6192 42.21 60.4385 42.2371L51.7082 43.0473C51.3743 43.0795 51.3065 43.2859 51.5591 43.5074L58.1443 49.2939C58.2744 49.4219 58.3717 49.5794 58.4281 49.753C58.4844 49.9266 58.4981 50.1112 58.468 50.2913L56.5433 58.8482C56.4699 59.1752 56.6454 59.3027 56.9347 59.1304L64.4731 54.6524C64.6351 54.5682 64.8149 54.5242 64.9974 54.5242C65.1799 54.5242 65.3597 54.5682 65.5216 54.6524L73.0617 59.1304C73.3499 59.3027 73.5254 59.1752 73.4518 58.8482L71.5249 50.2913C71.4948 50.1111 71.5087 49.9264 71.5654 49.7527C71.622 49.5791 71.7198 49.4217 71.8503 49.2939L78.4402 43.5074C78.692 43.2852 78.6246 43.0789 78.2895 43.0466Z" fill="#C6922C"/>
<path d="M23.81 78.6367C22.7106 75.3245 19.164 73.6168 15.852 74.7151C14.6894 75.1177 13.6718 75.8553 12.9273 76.835C12.1829 77.8146 11.7448 78.9926 11.6683 80.2206C11.5918 81.4486 11.8802 82.6719 12.4973 83.7364C13.1144 84.8008 14.0325 85.659 15.1362 86.2029C16.2399 86.7468 17.4798 86.9521 18.6999 86.7929C19.92 86.6337 21.0657 86.1173 21.9929 85.3084C22.9201 84.4996 23.5874 83.4346 23.9107 82.2474C24.2341 81.0603 24.199 79.804 23.81 78.6367ZM14.1502 81.8397C13.4513 79.7304 14.6104 78.0296 16.7197 77.3306C18.8291 76.6315 20.7905 77.2962 21.4905 79.4055C22.1905 81.5148 21.0205 83.238 18.9106 83.9376C16.8007 84.6372 14.8501 83.9492 14.1502 81.8397Z" fill="white"/>
<path d="M23.2119 102.543L25.092 96.8967C25.7283 97.2772 26.4621 97.4629 27.2028 97.4311C27.9436 97.3993 28.6588 97.1513 29.2601 96.7177C31.015 95.4771 31.4947 93.0693 30.1485 91.1653L26.312 85.7358L16.3242 92.7947L17.9151 95.0441L21.4992 92.5112L22.9815 94.6113L21.2414 99.753L23.2119 102.543ZM26.0862 89.2679L28.0155 91.9976C28.1546 92.179 28.2552 92.3868 28.3111 92.6084C28.3671 92.83 28.3772 93.0607 28.3409 93.2863C28.3046 93.5119 28.2226 93.7278 28.0999 93.9206C27.9772 94.1135 27.8165 94.2792 27.6275 94.4078C27.4415 94.5455 27.2297 94.6444 27.0047 94.6985C26.7796 94.7527 26.546 94.761 26.3177 94.723C26.0894 94.685 25.8711 94.6014 25.6757 94.4772C25.4804 94.3531 25.3121 94.1909 25.1807 94.0003L23.2527 91.2705L26.0862 89.2679Z" fill="white"/>
<path d="M29.8952 105.267L36.2441 97.7179L34.1359 95.9448L26.2617 105.307L32.8838 110.876L34.409 109.062L29.8952 105.267Z" fill="white"/>
<path d="M44.1475 103.277L41.5711 102.022L36.207 113.016L38.7822 114.273C43.0412 116.35 46.9433 115.434 48.5144 112.215C50.0855 108.996 48.4065 105.356 44.1475 103.277ZM45.939 110.958C44.7949 113.303 42.4789 113.358 40.3156 112.303L39.7552 112.028L42.9779 105.425L43.5383 105.699C45.6999 106.755 47.0821 108.614 45.939 110.958Z" fill="white"/>
<path d="M58.3477 120.615L61.1009 120.677L61.2007 116.288L63.7714 116.347L66.8666 120.808L70.281 120.885L66.8656 116.013C67.5501 115.728 68.1362 115.249 68.5516 114.635C68.967 114.021 69.1935 113.299 69.2032 112.557C69.2515 110.41 67.6035 108.591 65.2715 108.537L58.6253 108.387L58.3477 120.615ZM61.3281 110.67L64.67 110.746C65.6249 110.768 66.3995 111.466 66.3755 112.494C66.375 112.725 66.3281 112.954 66.2375 113.167C66.1469 113.38 66.0145 113.572 65.8481 113.733C65.6817 113.893 65.4848 114.019 65.2689 114.102C65.0531 114.184 64.8228 114.223 64.5917 114.215L61.251 114.138L61.3281 110.67Z" fill="white"/>
<path d="M75.8707 114.462L81.5711 113.034L80.995 110.736L75.2947 112.165L74.7186 109.867L80.7575 108.353L80.1813 106.056L71.4707 108.239L74.4441 120.102L83.1549 117.919L82.5788 115.621L76.5399 117.134L75.8707 114.462Z" fill="white"/>
<path d="M88.3575 104.391C89.123 103.977 89.9434 103.674 90.794 103.49L90.243 101.199C89.0527 101.413 87.9074 101.828 86.8563 102.426C83.2871 104.358 82.2015 108.14 83.8621 111.208C85.5227 114.275 89.3238 115.436 92.8609 113.522C93.9161 112.965 94.868 112.231 95.6749 111.352L94.1245 109.645C93.5053 110.256 92.8024 110.777 92.0369 111.191C89.3892 112.624 87.343 111.853 86.2849 109.898C85.2268 107.944 85.7098 105.824 88.3575 104.391Z" fill="white"/>
<path d="M103.665 105.388C104.856 104.226 105.539 102.64 105.567 100.977C105.594 99.3133 104.963 97.7063 103.811 96.5056C102.66 95.305 101.08 94.6078 99.4171 94.566C97.7539 94.5241 96.1414 95.1409 94.9308 96.2821C92.4116 98.6979 92.3944 102.634 94.8102 105.152C97.2259 107.67 101.148 107.805 103.665 105.388ZM96.6212 98.044C98.2256 96.505 100.284 96.8207 101.823 98.4251C103.362 100.029 103.578 102.086 101.975 103.625C100.372 105.164 98.337 104.848 96.7991 103.246C95.2612 101.643 95.0161 99.583 96.6212 98.044Z" fill="white"/>
<path d="M115.119 89.5347L116.795 86.5578L110.887 87.2793C110.958 86.541 110.811 85.798 110.465 85.1421C110.119 84.4862 109.588 83.9461 108.938 83.5885C107.065 82.5349 104.683 83.1317 103.538 85.1654L100.275 90.9599L110.936 96.9632L112.288 94.5623L108.463 92.4071L109.724 90.1669L115.119 89.5347ZM108.231 88.4388L106.591 91.3526L103.564 89.6484L105.206 86.7355C105.31 86.5322 105.455 86.3523 105.631 86.2069C105.807 86.0614 106.012 85.9534 106.231 85.8895C106.45 85.8256 106.681 85.8071 106.907 85.8352C107.134 85.8632 107.353 85.9373 107.55 86.0527C107.754 86.1618 107.935 86.3109 108.08 86.491C108.225 86.6712 108.333 86.8788 108.397 87.1014C108.46 87.3241 108.478 87.5572 108.45 87.7869C108.421 88.0167 108.347 88.2384 108.231 88.4388Z" fill="white"/>
<path d="M118.803 79.5687C119.877 74.9529 118.113 71.355 114.624 70.5425C111.135 69.7299 107.962 72.1789 106.888 76.7948L106.238 79.5859L118.153 82.3597L118.803 79.5687ZM116.541 78.514L116.398 79.1224L109.243 77.4559L109.384 76.8476C109.929 74.504 111.434 72.7425 113.973 73.3335C116.513 73.9245 117.086 76.1693 116.541 78.514Z" fill="white"/>
<path d="M117.02 58.0359C114.762 58.1105 114.399 59.3736 113.475 61.9949C112.601 64.4866 112.407 65.2657 111.636 65.291C110.919 65.3151 110.659 64.716 110.604 62.991C110.561 61.6476 110.683 60.304 110.968 58.9904L108.715 58.6415C108.366 60.1032 108.205 61.6034 108.236 63.1058C108.351 66.5751 109.541 68.1177 111.8 68.0419C113.948 67.972 114.6 66.5717 115.537 63.783C116.308 61.5151 116.432 60.8128 117.184 60.7888C118.103 60.7577 118.481 61.6645 118.533 63.2253C118.58 64.6392 118.319 66.2103 117.874 67.7675L120.004 68.2681C120.607 66.6171 120.898 64.8688 120.864 63.1116C120.765 60.0995 119.314 57.9601 117.02 58.0359Z" fill="white"/>
<path d="M25.3489 29.5952L23.7249 27.906C22.8124 28.6737 21.9915 29.5439 21.2783 30.4996C18.9059 33.634 19.1711 37.544 22.1585 39.8048C24.9414 41.912 28.7569 41.5285 31.3615 38.0874C32.0604 37.1655 33.0703 35.3732 33.402 34.4484L28.6721 30.867L27.1194 32.9166L30.2548 35.2899C29.9683 35.8201 29.6389 36.3261 29.2699 36.8026C27.7514 38.8093 25.5942 38.9497 23.8222 37.6082C21.8447 36.1117 21.6185 34.0975 23.4377 31.6955C24.0057 30.9355 24.6457 30.2322 25.3489 29.5952Z" fill="white"/>
<path d="M38.0281 28.3351C36.7415 29.2831 35.1775 29.1098 34.1329 27.6901L29.8993 21.9347L27.6797 23.5678L31.9133 29.3218C33.5902 31.6011 36.8093 32.2866 39.4868 30.3179C42.1643 28.3492 42.4673 25.0697 40.7906 22.7916L36.5568 17.0361L34.3372 18.6693L38.571 24.4247C39.6165 25.8447 39.3158 27.3895 38.0281 28.3351Z" fill="white"/>
<path d="M43.8269 13.6957L41.3066 14.8081L46.2459 25.9985L48.7662 24.8861L43.8269 13.6957Z" fill="white"/>
<path d="M59.705 21.9899L62.3389 21.4861L60.0425 9.47119L57.3729 9.98207L58.8936 17.9376L51.5636 11.0917L48.9297 11.5955L51.2261 23.6104L53.8955 23.0997L52.3784 15.1624L59.705 21.9899Z" fill="white"/>
<path d="M67.4607 21.7495L68.4649 13.7309L73.3288 22.484L75.9889 22.8168L77.5083 10.6805L74.8115 10.3429L73.806 18.3789L68.9434 9.60845L66.2831 9.27563L64.7637 21.4122L67.4607 21.7495Z" fill="white"/>
<path d="M82.9054 20.075L88.2947 22.4229L89.2416 20.2505L83.8523 17.9024L84.799 15.7298L90.5085 18.2178L91.4554 16.0454L83.2186 12.4568L78.332 23.6726L86.5676 27.2614L87.5143 25.0888L81.8048 22.6008L82.9054 20.075Z" fill="white"/>
<path d="M93.0764 29.4229C91.9677 28.5449 90.9384 27.3306 90.0363 25.9832L88.2793 27.2859C89.1491 28.8126 90.2943 30.1649 91.6568 31.2744C94.0176 33.1451 96.5871 33.423 98.0126 31.6222C99.4149 29.8506 98.6872 28.76 97.2849 26.3591C95.949 24.0833 95.4808 23.4305 95.9593 22.8267C96.4047 22.2643 97.0279 22.4537 98.3808 23.5256C99.4343 24.3605 100.38 25.3227 101.197 26.3902L102.92 24.8958C102.03 23.6849 100.99 22.5927 99.8234 21.6456C97.1024 19.4904 95.1572 19.402 93.7547 21.1729C92.42 22.8576 93.0661 24.2601 94.5879 26.777C95.8194 28.8314 96.2749 29.3802 95.8078 29.9699C95.2374 30.6887 94.2997 30.3926 93.0764 29.4229Z" fill="white"/>
<path d="M112.055 36.1554C111.509 34.7561 110.788 33.4321 109.907 32.2155C107.837 29.429 105.981 28.8404 104.168 30.1877C102.443 31.4684 102.705 32.9898 103.522 35.8146C104.179 38.1168 104.477 38.764 103.873 39.2132C103.135 39.7617 102.307 39.2313 101.377 37.9794C100.534 36.8445 99.8538 35.4041 99.3317 33.8709L97.2969 34.673C97.742 36.3725 98.498 37.9749 99.5268 39.3991C101.323 41.8172 103.731 42.7503 105.574 41.3811C107.387 40.0349 106.967 38.7908 106.234 36.11C105.533 33.5656 105.25 32.815 105.87 32.3549C106.445 31.9279 106.997 32.2721 108.026 33.6574C108.827 34.7367 109.492 35.9108 110.005 37.1531L112.055 36.1554Z" fill="white"/>
<path d="M21.5628 72.9296L21.518 70.2108L14.3463 68.6569L21.4525 66.225L21.4227 64.3336L14.2395 62.1358L21.3573 60.3479L21.3126 57.6301L9.12891 60.8046L9.16452 62.9909L16.8458 65.3459L9.24605 67.9683L9.28166 70.1533L21.5628 72.9296Z" fill="white"/>
</g>
<defs>
<clipPath id="clip0_369_487">
<rect width="130" height="130" fill="white"/>
</clipPath>
</defs>
</svg>
