<svg width="354" height="198" viewBox="0 0 354 198" fill="none" xmlns="http://www.w3.org/2000/svg">
<g clip-path="url(#clip0_369_404)">
<path d="M348.721 60.9219C341.375 56.9629 332.05 58.7934 324.183 60.5281C319.467 61.5657 314.917 61.9435 310.058 60.6984L315.236 54.4247C319.26 49.5452 320.786 43.8995 318.468 37.8972C317.341 34.9706 314.917 32.9911 312.386 32.2515C305.842 30.3412 301.095 35.4761 298.373 41.1431C296.805 44.405 295.306 47.5764 293.435 50.6361C291.409 53.9405 288.337 55.6007 284.546 56.1488C271.107 58.0804 268.386 69.8401 266.77 81.2965C260.816 82.7545 257.998 87.5861 257.174 93.1893C256.488 97.8666 253.517 101.932 251.236 106.098C251.231 90.8214 248.227 76.7044 240.992 63.6197L264.574 22.1147L233.257 0H233.241L231.306 0.287342L145 13.1645C135.277 13.4199 126.442 14.9684 117.591 18.8316L116.4 17.3789L50.7525 28.2713L73.2818 66.9081C68.8908 78.2103 66.6474 90.1084 66.4029 102.139L66.2115 106.141C62.7348 104.805 59.8907 103.475 56.9297 101.778C57.036 98.5211 55.6326 95.4934 52.0655 95.2486C52.2835 89.9647 48.1264 87.3094 46.5316 83.3878C45.6385 81.1954 45.8298 78.6998 46.2285 76.4011L47.4246 69.4517C47.7968 67.2913 47.5575 65.0404 46.6857 63.1088C45.1122 59.6075 41.3963 58.0697 37.8398 59.3734C31.8806 61.571 30.8333 68.2597 31.1097 74.1236C25.7565 69.9252 13.5402 66.7538 10.0901 73.9374C9.11731 75.9754 9.33526 78.2156 9.86155 80.4345C5.58214 82.4725 4.59336 85.4311 5.30039 90.0924C1.38248 90.0605 -7.15507 100.697 12.1262 111.648C15.9484 113.819 19.8451 115.634 24.0022 117.108C29.1534 118.938 34.5971 118.646 39.4665 115.98C40.854 118.273 43.1133 119.183 45.6066 118.646C47.8393 118.14 49.668 116.858 51.3957 115.389C56.7383 118.135 62.0544 120.29 67.7797 121.822C69.2948 131.156 72.0485 140.01 75.9717 148.402L58.7319 183.463L115.225 189.22C115.225 189.22 127.527 194.935 141.083 195.611C147.568 195.935 154.038 195.323 160.396 193.871C161.076 193.743 162.123 193.174 162.958 193.227L234.554 198L245.931 191.237L249.37 189.193L250.348 188.608L263.367 180.818L241.901 146.874C244.293 141.447 246.154 136.131 247.717 130.469C252.932 129.283 257.413 126.617 261.055 122.7C264.505 118.997 267.099 114.804 269.263 110.169C273.181 111.675 278.481 112.925 281.846 109.93C284.929 110.877 287.938 111.51 291.154 111.952C297.055 112.76 302.839 113.415 308.772 113.277C312.658 113.069 316.209 112.18 319.467 110.169C324.278 107.205 325.74 101.352 323.05 96.2756C326.867 94.0779 328.834 90.0818 328.191 85.7876C327.803 83.2068 326.554 81.0411 324.629 79.1255C329.663 79.4501 334.31 79.498 339.2 79.482C346.281 79.4607 351.496 79.0883 354 71.4897V67.9138C353.272 64.9446 351.571 62.4597 348.721 60.9219ZM12.5302 75.1506C13.3967 73.3414 15.4328 72.4528 17.506 72.3943C22.838 72.2399 28.0318 74.5706 31.7902 78.3593C32.7205 79.3011 33.2999 80.7006 33.1245 81.9351C32.8056 84.1327 30.6419 85.5641 28.4783 85.2502L25.4588 83.2068C21.6206 80.6101 17.187 79.5778 12.5355 79.8864C12.1049 78.3167 11.8338 76.6139 12.5302 75.1506ZM8.60697 84.734C9.36716 83.6272 10.7865 82.829 12.4239 82.6428C16.2142 82.2118 19.8929 83.1057 23.1835 85.0267C25.9213 86.6177 30.8227 89.5337 28.0849 93.45C27.245 94.6473 25.8894 95.2167 24.4806 95.4029C20.0524 91.2364 14.3004 88.9909 8.09131 89.3261C7.54908 87.8309 7.62882 86.1654 8.60697 84.734ZM51.0661 110.871C49.8381 113.351 47.9616 115.038 45.3727 115.948C44.1447 116.374 41.593 115.767 41.9917 114.176C42.2521 113.128 45.1069 110.547 43.7513 108.472C40.4553 107.301 42.5658 111.505 37.3667 114C33.5817 115.815 29.3714 116.086 25.3472 114.697C19.5793 112.697 12.2059 109.238 7.70324 105.109C4.83258 102.48 1.67486 97.8347 4.34882 94.2003C5.13028 93.1308 6.69319 92.1889 8.36243 92.0665C13.8486 91.6675 19.3773 93.9449 23.1038 97.9943C24.2361 99.2288 24.8209 101.011 24.3265 102.565C23.662 104.635 19.4623 104.922 18.2875 104.46L14.1994 102.837C13.5243 102.57 12.594 103.188 12.4824 103.773C12.3548 104.46 12.6844 105.236 13.418 105.465C20.382 107.599 20.6478 111.638 22.6572 110.377C23.0559 110.127 23.2526 109.286 23.1782 108.748L21.9662 107.205C24.1138 106.732 25.8628 105.646 26.7772 103.752C27.6968 101.857 27.0164 99.729 26.405 97.8506C28.4517 97.0897 30.1369 95.6849 30.8865 94.0886C31.8859 91.9495 31.6307 89.8742 30.7748 87.8788C32.8481 87.1551 34.6715 85.8035 35.3626 83.989C36.1493 81.9244 35.958 79.6895 34.916 77.8538C34.3313 76.8321 33.7997 76.4862 33.8369 75.0442C33.9113 72.0431 33.5179 69.0472 34.6927 66.2377C35.7187 63.7793 37.7069 61.6242 40.4979 61.6402C42.9273 61.6562 44.5327 63.8698 44.7879 66.1951C45.4896 72.6177 40.1736 80.0354 45.8989 87.7777C46.9515 89.2038 48.036 90.6245 48.7962 92.2687C50.0401 94.9612 49.2853 98.1486 47.3609 100.352C46.6326 101.182 46.4837 102.012 46.9621 102.916C49.1311 104.247 50.997 99.8993 51.6987 98.2231C51.837 97.8932 52.9214 98.0954 53.1606 98.3668C54.0272 99.3459 54.4737 100.692 54.1547 101.996C53.4052 105.077 52.4642 108.067 51.0661 110.871ZM53.251 112.691C54.3993 110.297 55.2871 107.892 56.1483 105.13C59.4655 106.843 62.8146 108.355 66.4188 109.69L67.2003 118.305C62.368 116.922 57.8015 115.022 53.251 112.691ZM142.853 18.1398L140.944 22.9661L139.254 27.0208L133.225 42.7076L124.693 29.5856C123.997 28.5214 123.183 27.6221 122.721 26.6004L120.191 22.8437C127.452 19.8106 134.879 18.2037 142.853 18.1398ZM76.9712 73.4266C78.4065 75.3262 79.2624 77.3057 80.299 79.1308L82.6646 83.292L96.5076 106.684L84.6316 130.687C83.9033 132.161 83.2972 133.518 82.5636 134.785L79.6611 140.606C71.0066 119.465 70.2251 94.9719 76.9712 73.4266ZM129.01 186.634C129.749 185.064 130.583 183.702 131.349 182.324C131.992 181.159 132.279 179.892 133.077 179.019L138.579 168.164L144.527 179.435L146.659 183.569C147.398 185.006 148.61 186.379 149.264 188.172C142.326 188.832 135.708 188.305 129.01 186.634ZM155.25 186.836L138.478 155.596L123.673 184.192L67.7 178.482L103.131 106.466L60.0662 32.6612L113.716 23.743L134.565 55.34L149.057 18.4431L223.125 7.41768L174.015 104.667L224.177 191.455L155.25 186.836ZM204.046 58.2826C218.091 85.1437 218.293 119.316 205.013 146.433C203.206 144.352 202.589 141.585 201.143 139.606C199.118 136.833 197.709 133.646 195.987 130.709L180.644 104.486L195.625 75.0814C197.284 71.8196 198.57 68.5311 200.431 65.6151L204.046 58.2826ZM254.415 178.706L243.342 185.251C243.342 185.251 243.352 185.272 243.358 185.282L231.423 192.301L209.978 155.213C209.697 154.718 210.058 154.351 210.143 154.196C212.817 149.445 216.937 139.67 218.495 134.152C223.789 115.368 224.039 96.5203 219.303 77.8804C216.926 68.5205 213.019 59.847 208.362 51.5353C208.224 51.3491 207.847 51.099 207.857 50.8702C207.863 50.6893 208.038 50.2849 208.171 49.9869L230.445 5.90648L256.095 24.025L233.544 63.8538C241.354 75.3368 245.5 93.3755 244.761 107.205L244.469 112.649C242.56 113.617 240.822 113.229 239.004 112.995C235.942 112.601 231.79 112.484 229.377 115.001C226.442 118.06 225.932 122.812 228.17 126.42C230.312 129.868 235.517 130.219 238.967 130.836L240.886 131.044C239.206 136.743 237.106 142.08 234.645 147.337L254.415 178.706ZM258.53 120.662C255.074 124.254 250.891 126.707 245.968 127.511C242.847 128.117 232.938 127.612 231.003 124.813C229.233 122.253 229.823 118.614 232.247 116.858C235.463 114.527 241.125 117.943 245.824 115.602C248.52 114.453 250.545 112.494 252.368 110.206C254.814 106.79 256.728 103.198 258.625 99.298C260.348 103.076 262.889 106.146 266.429 108.53C264.425 113.08 261.831 117.097 258.53 120.662ZM260.948 95.9723C259.758 91.4546 261.788 86.6869 266.249 84.9256L266.371 90.0711C266.435 92.7157 267.184 95.2113 268.184 97.6165C270.416 102.044 273.659 105.433 278.21 108.285C270.64 109.701 262.783 102.948 260.948 95.9723ZM321.163 93.5831C317.15 90.0498 312.62 87.8894 307.538 86.8571C304.705 86.2771 302.095 85.8514 299.155 86.0803C298.15 84.8724 297.257 83.4569 296.917 81.9244C296.321 79.2745 297.906 76.8321 300.478 76.1403C305.385 74.8154 311.695 75.9647 316.405 77.6675C319.6 78.8222 322.365 80.8283 324.087 83.7123C326.182 87.2243 325.007 91.6675 321.163 93.5831ZM350.816 70.1913C350.354 74.3099 346.537 76.2574 342.72 76.2468L330.386 76.2148C319.622 76.1829 315.151 73.1286 307.884 72.3889C305.082 72.1069 302.057 72.3304 299.325 73.1392C295.503 74.2726 293.254 77.7739 293.621 81.6531C293.796 83.5155 294.583 85.0852 295.561 86.8731C292.462 87.8682 290.155 90.103 289.846 93.2851C289.57 96.1159 290.522 98.7925 292.462 101.049L288.964 101.357C288.703 101.847 288.427 102.491 288.374 103.017C288.103 105.534 294.051 103.778 297.082 104.289C299.729 104.736 305.492 107.445 305.481 104.284C305.481 101.778 302.025 103.198 296.858 100.378C294.381 99.0266 292.834 96.531 293.036 93.7161C293.153 92.008 294.296 90.9012 295.753 90.2733C298.873 88.9271 302.105 89.0761 305.433 89.6986C310.212 90.5926 314.63 92.2687 318.33 95.4614C319.297 96.3022 320.036 97.3877 320.552 98.5637C322.083 102.033 320.717 105.779 317.41 107.636C314.502 109.27 311.291 110.116 307.799 110.089C300.33 110.02 292.988 109.302 285.711 107.636C279.262 106.157 273.957 101.969 271.091 96.1C267.928 89.6188 270.124 78.1783 272.08 71.4631C274.09 64.5509 278.114 60.278 285.376 59.2457C293.376 58.107 296.3 52.9721 299.532 46.1397C301.446 42.0903 304.136 35.7847 308.958 35.1196C311.908 34.7099 314.64 36.6148 315.603 39.4191C317.394 44.6232 315.847 48.5768 312.477 52.6687L306.47 59.964C306.034 60.4962 305.709 61.4752 305.922 62.0233C306.103 62.4809 306.826 63.1088 307.427 63.3057C313.157 65.1788 319.085 64.9553 324.975 63.641C329.637 62.598 334.156 61.7253 338.929 61.752C344.001 61.7839 351.502 64.1199 350.816 70.1913Z" fill="#1C1E21"/>
<path d="M230.998 124.813C232.933 127.612 242.847 128.123 245.962 127.516C250.885 126.713 255.069 124.259 258.524 120.668C261.825 117.103 264.42 113.085 266.424 108.535C262.883 106.152 260.337 103.076 258.62 99.3033C256.722 103.204 254.808 106.79 252.363 110.212C250.539 112.5 248.514 114.458 245.819 115.607C241.125 117.949 235.458 114.532 232.242 116.863C229.812 118.624 229.227 122.264 230.998 124.818V124.813Z" fill="white"/>
<path d="M174.016 104.667L223.125 7.41766L149.057 18.4431L134.565 55.3399L113.716 23.743L60.0664 32.6612L103.132 106.466L67.7002 178.482L123.673 184.192L138.478 155.596L155.25 186.836L224.178 191.455L174.016 104.667ZM136.197 137.919L116.485 174.736L79.5975 171.064L110.601 104.885L71.7617 38.3655L108.442 32.1078L133.794 71.4417L154.245 26.7122L202.27 20.3587L160.704 104.135L203.87 179.514L158.36 177.189L136.197 137.919Z" fill="#E63946"/>
<path d="M307.883 72.3889C304.146 70.2977 299.287 70.154 295.13 71.5216C289.021 73.5277 289.096 80.0886 290.393 85.3406C289.021 86.5325 287.549 87.7404 286.789 89.4485C285.784 91.7153 285.731 94.2642 286.231 96.6534C286.635 98.5743 287.788 99.9738 288.958 101.357C288.697 101.847 288.421 102.491 288.362 103.017C288.091 105.534 294.04 103.778 297.07 104.289C299.717 104.736 305.475 107.445 305.469 104.289C305.469 101.783 302.009 103.204 296.847 100.383C294.369 99.0319 292.822 96.5363 293.019 93.7214C293.141 92.0133 294.284 90.9065 295.736 90.2786C298.856 88.9324 302.088 89.0814 305.421 89.7039C310.201 90.5979 314.618 92.2741 318.313 95.4668C319.28 96.3075 320.019 97.393 320.535 98.5637C322.066 102.038 320.7 105.779 317.393 107.636C314.485 109.27 311.269 110.121 307.782 110.089C300.313 110.025 292.971 109.302 285.694 107.636C279.245 106.162 273.94 101.969 271.075 96.1C267.911 89.6241 270.107 78.1783 272.063 71.463C274.073 64.5509 278.102 60.278 285.359 59.2457C293.365 58.107 296.288 52.972 299.521 46.1397C301.434 42.0903 304.124 35.7847 308.946 35.1196C311.896 34.7152 314.629 36.6148 315.591 39.4191C317.382 44.6232 315.83 48.5821 312.465 52.6741L306.458 59.9694C306.022 60.5015 305.698 61.4806 305.916 62.0286C306.097 62.4863 306.82 63.1142 307.415 63.311C313.146 65.1841 319.073 64.9606 324.968 63.6463C329.631 62.6087 334.149 61.736 338.923 61.7626C343.995 61.7892 351.495 64.1305 350.81 70.1966C350.347 74.3152 346.53 76.2627 342.713 76.2521L330.375 76.2202C319.61 76.1882 315.144 73.1339 307.877 72.3996L307.883 72.3889Z" fill="#E63946"/>
<path d="M233.543 63.8538C229.269 62.0393 225.171 59.8151 220.912 57.6653L209.557 51.9397C209.207 51.7641 208.68 51.6152 208.361 51.5353C213.018 59.847 216.925 68.5205 219.302 77.8804C224.038 96.5203 223.788 115.368 218.494 134.152C216.936 139.67 212.816 149.444 210.142 154.196L210.408 154.478L234.644 147.337C237.105 142.08 239.205 136.743 240.885 131.044L238.966 130.836C237.929 132.992 235.489 134.471 233.384 134.801C230.487 135.253 228.004 134.077 226.165 131.996C221.497 126.729 221.487 117.103 226.17 111.803C227.988 109.738 230.317 108.647 233.171 108.977C235.399 109.233 237.887 110.77 239.003 112.995C240.821 113.229 242.559 113.617 244.468 112.649L244.76 107.205C245.499 93.3755 241.353 75.3368 233.543 63.8538Z" fill="#E63946"/>
<path d="M233.545 63.8538C229.265 62.0446 225.167 59.8151 220.908 57.6653L209.559 51.9398C209.208 51.7642 208.682 51.6152 208.363 51.5354C208.224 51.3491 207.847 51.099 207.858 50.8702C207.863 50.684 208.038 50.2849 208.171 49.9869L230.445 5.90118L256.095 24.025L233.55 63.8485L233.545 63.8538Z" fill="#AE141F"/>
<path d="M254.415 178.706L234.645 147.337L210.409 154.478L210.143 154.196C210.058 154.351 209.697 154.718 209.979 155.213L231.424 192.301L243.358 185.282C243.358 185.282 243.347 185.261 243.342 185.251L254.415 178.706Z" fill="#AE141F"/>
<path d="M46.9623 102.916C46.1596 104.891 44.7349 106.583 43.7514 108.477C40.4555 107.306 42.566 111.51 37.3669 114C33.5872 115.815 29.3716 116.092 25.3473 114.697C19.5794 112.697 12.2061 109.238 7.70342 105.109C4.83276 102.48 1.67503 97.8347 4.349 94.2003C5.13577 93.1308 6.69869 92.1889 8.36792 92.0665C13.8541 91.6675 19.3827 93.9449 23.1093 97.9943C24.2416 99.2235 24.821 101.011 24.3267 102.565C23.6675 104.64 19.4625 104.922 18.293 104.46L14.2049 102.842C13.5298 102.576 12.5995 103.193 12.4878 103.778C12.3603 104.465 12.6899 105.242 13.4235 105.471C20.3875 107.604 20.6533 111.643 22.6627 110.387C23.0614 110.137 23.2581 109.296 23.1837 108.759C24.938 108.77 26.7454 108.301 28.1755 107.125C30.3976 105.306 30.7431 102.331 30.5943 99.6173C33.9061 97.3558 35.3734 93.599 34.879 89.6507C36.8619 88.2194 38.2068 86.1228 38.1324 83.6166C38.0633 81.3923 37.0054 78.8595 34.9162 77.8644C34.3314 76.8427 33.7998 76.4969 33.837 75.0548C33.9115 72.0537 33.5181 69.0579 34.6929 66.243C35.7189 63.79 37.7071 61.6296 40.498 61.6509C42.9221 61.6668 44.5276 63.8751 44.7828 66.2058C45.4845 72.6284 40.1684 80.0461 45.8938 87.7883C46.9517 89.2144 48.0309 90.6352 48.791 92.2794C50.0403 94.9719 49.2854 98.1593 47.3557 100.362C46.6274 101.198 46.4786 102.022 46.957 102.927L46.9623 102.916Z" fill="#E63946"/>
<path d="M195.987 130.709L180.645 104.486L195.62 75.0814C201.43 92.8913 201.276 112.739 195.981 130.709H195.987Z" fill="#1C3F95"/>
<path d="M201.138 139.606C210.574 116.906 210.622 88.0065 200.426 65.6151L204.041 58.2879C218.086 85.1437 218.288 119.316 205.008 146.433C203.201 144.352 202.584 141.585 201.138 139.606Z" fill="#E63946"/>
<path d="M201.137 139.606C199.117 136.833 197.703 133.651 195.981 130.709C201.275 112.745 201.43 92.8913 195.619 75.0814C197.283 71.8196 198.564 68.5311 200.425 65.6151C210.621 88.0065 210.573 116.906 201.137 139.606Z" fill="#FFD700"/>
<path d="M84.632 130.687C79.9007 116.416 79.3904 97.9252 82.665 83.292L96.508 106.684L84.632 130.687Z" fill="#1C3F95"/>
<path d="M321.157 93.5831C317.143 90.0498 312.614 87.8841 307.532 86.8518C304.698 86.2772 302.088 85.8515 299.154 86.0803C298.144 84.8724 297.256 83.4569 296.91 81.9245C296.315 79.2745 297.899 76.8374 300.477 76.1404C305.384 74.8154 311.689 75.9648 316.404 77.6675C319.599 78.8222 322.369 80.8283 324.091 83.7124C326.186 87.219 325.011 91.6622 321.162 93.5831H321.157Z" fill="#E63946"/>
<path d="M80.2981 79.1308C75.8007 97.4835 76.3748 116.906 82.5627 134.785L79.6601 140.606C71.0056 119.465 70.2295 94.9719 76.9702 73.4266C78.4056 75.3262 79.2614 77.3057 80.2981 79.1308Z" fill="#E63946"/>
<path d="M238.999 112.995C235.942 112.601 231.791 112.478 229.377 115.001C226.443 118.066 225.932 122.812 228.17 126.42C230.313 129.873 235.517 130.225 238.967 130.836C237.931 132.992 235.485 134.471 233.38 134.801C230.483 135.253 228.006 134.077 226.161 131.996C221.493 126.734 221.483 117.103 226.161 111.803C227.979 109.743 230.307 108.647 233.162 108.977C235.389 109.233 237.883 110.77 238.994 112.995H238.999Z" fill="#AE141F"/>
<path d="M82.6647 83.292C79.39 97.9305 79.9056 116.421 84.6316 130.687C83.9033 132.161 83.2973 133.518 82.5637 134.785C76.3758 116.906 75.8017 97.4835 80.299 79.1309L82.6647 83.292Z" fill="#FFD700"/>
<path d="M28.4776 85.2502L25.458 83.2068C21.6199 80.6101 17.1863 79.5831 12.5348 79.8864C12.0988 78.3114 11.833 76.6139 12.5294 75.1506C13.396 73.3361 15.432 72.4528 17.4999 72.3889C22.8372 72.2346 28.031 74.5653 31.7841 78.3539C32.7144 79.2958 33.2939 80.6899 33.1184 81.9244C32.8048 84.1274 30.6359 85.5588 28.4722 85.2395L28.4776 85.2502Z" fill="#E63946"/>
<path d="M28.0786 93.45C27.244 94.6473 25.8884 95.2166 24.4743 95.4029C20.0461 91.2364 14.2994 88.9909 8.0903 89.3261C7.54807 87.8309 7.62781 86.1654 8.60596 84.734C9.36615 83.6219 10.7855 82.829 12.4229 82.6428C16.2132 82.2117 19.8919 83.1057 23.1825 85.0213C25.9203 86.6123 30.8163 89.5336 28.0786 93.45Z" fill="#E63946"/>
<path d="M307.883 72.389C305.076 72.1069 302.051 72.3304 299.324 73.1392C295.497 74.2726 293.253 77.774 293.62 81.6531C293.795 83.5155 294.582 85.0852 295.555 86.8731C292.456 87.8682 290.149 90.1031 289.84 93.2851C289.564 96.116 290.515 98.7978 292.456 101.049L288.958 101.357C287.788 99.9738 286.635 98.5743 286.231 96.6534C285.731 94.2695 285.784 91.7154 286.789 89.4486C287.544 87.7405 289.022 86.5326 290.393 85.3406C289.091 80.0887 289.022 73.5277 295.13 71.5216C299.287 70.1541 304.146 70.2977 307.883 72.389Z" fill="#AE141F"/>
<path d="M278.204 108.285C270.634 109.701 262.777 102.948 260.943 95.9722C259.757 91.4599 261.783 86.6922 266.243 84.9255L266.365 90.0711C266.429 92.7157 267.178 95.2113 268.178 97.6165C270.411 102.044 273.653 105.433 278.204 108.285Z" fill="#AE141F"/>
<path d="M139.248 27.0208L133.22 42.7076L124.688 29.5856C129.355 27.9414 134.299 26.9995 139.248 27.0208Z" fill="#1C3F95"/>
<path d="M23.173 108.748L21.9609 107.205C24.1086 106.732 25.8629 105.646 26.7773 103.752C27.6916 101.857 27.0165 99.7237 26.4051 97.8506C28.4518 97.0897 30.137 95.6849 30.8866 94.0833C31.8913 91.9442 31.6308 89.8689 30.7802 87.8735C32.8482 87.1498 34.6769 85.7982 35.368 83.9837C36.1547 81.9191 35.9634 79.6789 34.9214 77.8484C37.0053 78.8488 38.0685 81.3817 38.1376 83.6006C38.2121 86.1069 36.8671 88.2034 34.8842 89.6348C35.3733 93.5778 33.9114 97.3345 30.5995 99.6013C30.7483 102.315 30.4028 105.29 28.1807 107.109C26.7507 108.285 24.9379 108.754 23.1889 108.743L23.173 108.748Z" fill="#AE141F"/>
<path d="M43.7516 108.472C44.735 106.577 46.1597 104.885 46.9624 102.911C49.1314 104.241 50.9973 99.8993 51.699 98.2231C51.8373 97.8932 52.9217 98.0954 53.1609 98.3668C54.0275 99.3406 54.474 100.687 54.155 101.99C53.4055 105.071 52.4645 108.062 51.0664 110.871C49.8384 113.346 47.9619 115.038 45.373 115.943C44.1503 116.368 41.5986 115.762 41.992 114.176C42.2524 113.128 45.1072 110.547 43.7516 108.472Z" fill="#AE141F"/>
<path d="M140.943 22.9661C134.697 22.9289 128.583 24.5146 122.72 26.6005L120.189 22.8437C127.456 19.816 134.878 18.2037 142.857 18.1451L140.949 22.9661H140.943Z" fill="#E63946"/>
<path d="M146.653 183.569C147.392 185.006 148.609 186.373 149.258 188.167C142.321 188.826 135.707 188.3 129.004 186.634C129.743 185.064 130.577 183.697 131.343 182.319C136.234 183.808 141.528 183.793 146.653 183.569Z" fill="#E63946"/>
<path d="M144.527 179.434C140.705 179.621 136.84 179.69 133.076 179.019L138.578 168.164L144.527 179.434Z" fill="#1C3F95"/>
<path d="M140.944 22.9661L139.248 27.0208C134.298 26.9995 129.355 27.9467 124.687 29.5856C123.996 28.5214 123.183 27.6221 122.715 26.6005C128.584 24.5199 134.697 22.9342 140.938 22.9661H140.944Z" fill="#FFD700"/>
<path d="M144.526 179.435L146.658 183.569C141.533 183.793 136.238 183.809 131.348 182.319C131.991 181.159 132.283 179.887 133.075 179.014C136.839 179.685 140.704 179.621 144.526 179.429V179.435Z" fill="#FFD700"/>
<path d="M160.704 104.135L202.27 20.3587L154.245 26.7122L133.795 71.4417L108.442 32.1078L71.7617 38.3655L110.601 104.885L79.5975 171.064L116.486 174.736L136.197 137.919L158.36 177.189L203.87 179.514L160.704 104.135ZM136.171 135.679L115.864 173.629L81.1817 170.192L111.807 104.827L73.4628 39.153L107.911 33.2572L133.954 73.6926L154.979 27.6646L200.42 21.6624L159.487 104.172L202.01 178.402L159.014 176.183L136.171 135.679Z" fill="#1C1E21"/>
<path d="M115.864 173.629L81.1818 170.192L111.802 104.827L73.4629 39.153L107.905 33.2572L133.949 73.6926L154.979 27.6647L200.42 21.6624L159.487 104.172L202.005 178.402L159.014 176.183L136.166 135.679L115.864 173.629Z" fill="#FFD700"/>
<path d="M224.416 77.8697V77.3589L224.639 77.7154C224.708 77.8218 224.581 78.2741 224.416 77.8697Z" fill="#E63946"/>
<path d="M67.1993 118.305L66.4178 109.69C62.8135 108.355 59.4644 106.843 56.1472 105.13C55.2807 107.886 54.3983 110.291 53.25 112.686C57.8005 115.017 62.367 116.916 67.1993 118.305Z" fill="white"/>
</g>
<defs>
<clipPath id="clip0_369_404">
<rect width="354" height="198" fill="white"/>
</clipPath>
</defs>
</svg>
