<svg width="310" height="57" viewBox="0 0 310 57" fill="none" xmlns="http://www.w3.org/2000/svg">
<path d="M78.3101 45.6812L68.2 29.7099C67.5925 28.5703 67.1251 27.8833 67.1251 26.5251C67.1251 24.5423 68.1688 23.106 71.6583 20.9047C72.406 20.4051 75.1322 19.3279 77.3442 19.3279C80.3196 19.3279 82.5317 22.4191 82.5317 28.8669C82.5317 39.3739 78.3101 45.6812 78.3101 45.6812ZM78.3101 45.6812L80.1794 25.1824L81.0206 21.6072C81.0206 21.6072 84.7437 27.0403 94.1995 44.5103C100.213 33.5505 104.045 20.4675 104.045 20.4675C104.31 19.5777 105.026 19.3591 106.054 19.6245L112.55 21.6385C113.345 21.9195 113.765 22.2317 113.329 23.6993C107.924 39.4363 99.4804 52.4256 99.4804 52.4256C97.8603 54.8455 96.1935 56.8907 90.7101 56.8907C86.2859 56.8907 84.7437 55.3763 83.1859 53.0657L78.3256 45.6812H78.3101ZM38.3372 51.1611C38.3372 51.1611 31.4985 45.9154 31.4985 36.1265V8.07149C31.4985 5.82334 32.9472 3.8562 39.007 3.8562C45.6276 3.8562 46.3442 6.43221 46.3442 8.36812V20.0148H58.0744C58.9156 20.0148 59.2427 20.5144 59.2427 21.295V28.2424C59.2427 28.8981 58.9779 29.4133 58.199 29.4133H50.4412C48.4317 29.4133 46.3442 28.6327 46.3442 28.6327V33.332C46.3442 39.1865 44.8332 45.1816 38.3372 51.1611ZM38.3372 51.1611L44.397 35.4864L46.3442 33.5349V36.2827C46.3442 42.871 49.5377 47.9449 57.794 47.9449C65.3337 47.9449 70.6301 43.6672 70.6301 37.032C70.6301 33.6598 68.9945 30.9901 68.9945 30.9901L77.5467 35.2679L78.2945 45.6812C78.2945 45.6812 72.6085 56.8595 56.5633 56.8595C44.0387 56.8595 38.3216 51.1611 38.3216 51.1611H38.3372ZM0.0311558 21.2325C0.0311558 20.53 0.420603 20.0304 1.1995 20.0304H13.9578C14.6276 20.0304 15.0794 20.5612 15.0794 21.2169V40.8102C15.0794 44.1512 16.9799 48.0386 22.8372 48.0386C28.6945 48.0386 31.4985 44.479 31.4985 37.2194V35.6894L37.5583 47.2424L38.3372 51.1611C38.3372 51.1611 32.3864 56.9219 21.6221 56.9219C16.2789 56.9219 0.0311558 56.0477 0.0311558 38.2342V21.2169V21.2325ZM0 7.47823C0 3.35661 2.89749 0 7.57085 0C12.4779 0 15.1261 3.52835 15.1261 7.66557C15.1261 12.2243 11.7925 14.9877 7.61759 14.9877C3.05327 14.9877 0 11.8809 0 7.47823Z" fill="#006473"/>
<path d="M127.396 57.0002C123.47 57.0002 122.723 56.3133 122.723 54.8145V8.54004H134.484L154.439 44.3856V8.54004H163.879V53.8153C163.879 56.1103 162.197 56.8441 157.321 56.8441C152.819 56.8441 151.9 56.0635 150.638 55.0955C150.031 54.4086 149.859 54.0963 148.675 51.9419L132.178 22.3568V54.8301C132.178 56.4538 131.4 57.0158 127.412 57.0158L127.396 57.0002Z" fill="#006473"/>
<path d="M206.968 8.54H217.483C219.368 21.2327 222.39 31.1932 225.817 48.0075H226.721L232.204 10.7882C232.562 8.9303 233.123 8.54 234.899 8.54H245.414C247.096 8.54 247.688 8.96153 248.062 10.6476L254.402 47.9919H255.306C258.079 34.3313 260.493 26.7906 263.126 8.52439H273.563C269.201 33.1448 266.678 38.7964 263.048 53.8933C262.737 55.0174 262.487 55.2672 262.238 55.5638C261.553 56.3132 260.54 56.9689 254.979 56.9689C250.648 56.9689 248.888 56.7347 247.626 55.517C247.143 55.0642 246.987 54.5959 246.676 53.1283L240.476 17.8917H239.806L234.182 53.4562C233.949 54.6271 233.824 54.9393 233.357 55.5014C232.811 56.0478 232.11 56.9689 225.833 56.9689C220.785 56.9689 219.726 56.5318 218.698 55.5638C218.168 55.0018 217.888 54.0807 217.732 53.2845C213.931 38.0158 209.881 24.7142 206.999 8.49316L206.968 8.54Z" fill="#006473"/>
<path d="M291.384 56.9689C285.729 56.9689 282.053 56.2976 277.348 55.0486C276.087 54.6895 275.635 54.3617 275.635 53.0034C275.635 51.6452 276.149 48.8662 276.585 47.9295C277.084 46.8834 277.208 46.7273 278.018 46.7273C279.342 46.7273 283.533 48.6476 290.839 48.6476C295.886 48.6476 297.568 47.586 298.565 46.5712C299.313 45.7438 299.765 44.4792 299.765 43.0429C299.765 41.8876 299.516 40.4356 298.534 39.5145C295.138 36.314 284.296 35.7364 279.997 31.2713C277.052 28.3986 276.382 24.48 276.382 21.904C276.382 17.595 277.971 14.5663 280.121 12.3806C283.533 8.91467 289.141 7.86865 294.609 7.86865C301.65 7.86865 307.242 9.63283 307.242 9.63283L306.339 17.8136C306.339 17.8136 300.232 16.2055 295.138 16.2055C288.331 16.2055 286.679 18.8752 286.695 21.4825C286.695 22.7002 287.116 23.7618 287.91 24.5112C290.886 27.6024 301.65 27.7585 306.323 32.4734C309.143 35.2992 309.984 38.8276 309.984 42.3559C309.984 46.4775 308.847 50.0371 306.199 52.738C303.005 55.8917 297.677 56.9689 291.384 56.9689Z" fill="#006473"/>
<path d="M172.588 57.0002C171.155 57.0002 170.641 56.2664 170.641 55.0487V10.7414C170.641 9.21136 171.092 8.54004 173.445 8.54004H203.557V16.9082H180.86V28.1645H200.285V36.4546H180.86V48.7257H204.024V57.0158H172.588V57.0002Z" fill="#006473"/>
</svg>
