<svg width="32" height="32" viewBox="0 0 32 32" fill="none" xmlns="http://www.w3.org/2000/svg">
<path d="M18.6654 29.3334V24C18.6654 23.2928 18.3844 22.6145 17.8843 22.1144C17.3842 21.6143 16.7059 21.3334 15.9987 21.3334C15.2915 21.3334 14.6132 21.6143 14.1131 22.1144C13.613 22.6145 13.332 23.2928 13.332 24V29.3334" stroke="#1C3F95" stroke-width="2.66667" stroke-linecap="round" stroke-linejoin="round"/>
<path d="M24.0013 13.3334L28.5973 15.632C28.8187 15.7427 29.005 15.9128 29.1352 16.1233C29.2655 16.3339 29.3345 16.5765 29.3346 16.824V26.6667C29.3346 27.374 29.0537 28.0522 28.5536 28.5523C28.0535 29.0524 27.3752 29.3334 26.668 29.3334H5.33464C4.62739 29.3334 3.94911 29.0524 3.44902 28.5523C2.94892 28.0522 2.66797 27.374 2.66797 26.6667V16.824C2.6681 16.5765 2.73715 16.3339 2.86737 16.1233C2.9976 15.9128 3.18386 15.7427 3.4053 15.632L8.0013 13.3334" stroke="#1C3F95" stroke-width="2.66667" stroke-linecap="round" stroke-linejoin="round"/>
<path d="M24 6.66669V29.3334" stroke="#1C3F95" stroke-width="2.66667" stroke-linecap="round" stroke-linejoin="round"/>
<path d="M5.33203 8.00002L14.8067 3.26269C15.1768 3.07773 15.5849 2.98145 15.9987 2.98145C16.4125 2.98145 16.8206 3.07773 17.1907 3.26269L26.6654 8.00002" stroke="#1C3F95" stroke-width="2.66667" stroke-linecap="round" stroke-linejoin="round"/>
<path d="M8 6.66669V29.3334" stroke="#1C3F95" stroke-width="2.66667" stroke-linecap="round" stroke-linejoin="round"/>
<path d="M15.9987 14.6667C17.4715 14.6667 18.6654 13.4728 18.6654 12C18.6654 10.5273 17.4715 9.33337 15.9987 9.33337C14.5259 9.33337 13.332 10.5273 13.332 12C13.332 13.4728 14.5259 14.6667 15.9987 14.6667Z" stroke="#1C3F95" stroke-width="2.66667" stroke-linecap="round" stroke-linejoin="round"/>
</svg>
