<svg width="48" height="48" viewBox="0 0 48 48" fill="none" xmlns="http://www.w3.org/2000/svg">
<path d="M18 36V10L42 6V32" stroke="white" stroke-width="4" stroke-linecap="round" stroke-linejoin="round"/>
<path d="M12 42C15.3137 42 18 39.3137 18 36C18 32.6863 15.3137 30 12 30C8.68629 30 6 32.6863 6 36C6 39.3137 8.68629 42 12 42Z" stroke="white" stroke-width="4" stroke-linecap="round" stroke-linejoin="round"/>
<path d="M36 38C39.3137 38 42 35.3137 42 32C42 28.6863 39.3137 26 36 26C32.6863 26 30 28.6863 30 32C30 35.3137 32.6863 38 36 38Z" stroke="white" stroke-width="4" stroke-linecap="round" stroke-linejoin="round"/>
</svg>
