<svg width="32" height="32" viewBox="0 0 32 32" fill="none" xmlns="http://www.w3.org/2000/svg">
<g clip-path="url(#clip0_369_654)">
<path d="M30.6667 14.6667H25.2267C25.1228 13.9321 24.9307 13.2126 24.6547 12.524L29.3573 9.79867C29.5145 9.71409 29.6531 9.59881 29.7649 9.45968C29.8767 9.32055 29.9594 9.16039 30.0081 8.98869C30.0569 8.81699 30.0707 8.63726 30.0486 8.46014C30.0266 8.28302 29.9693 8.11213 29.88 7.95758C29.7907 7.80303 29.6713 7.66799 29.5289 7.56044C29.3864 7.4529 29.2239 7.37505 29.0508 7.3315C28.8777 7.28796 28.6976 7.27961 28.5212 7.30695C28.3449 7.33429 28.1758 7.39677 28.024 7.49067L23.3173 10.22C22.8674 9.65162 22.3533 9.1371 21.7853 8.68667L24.5133 3.97867C24.6776 3.6734 24.7165 3.31616 24.6219 2.98268C24.5272 2.6492 24.3064 2.36571 24.0062 2.1923C23.706 2.01889 23.3501 1.96921 23.0139 2.05378C22.6777 2.13835 22.3877 2.35053 22.2053 2.64533L19.476 7.34533C18.7875 7.06897 18.068 6.8769 17.3333 6.77333V1.33333C17.3333 0.979711 17.1929 0.640573 16.9428 0.390524C16.6928 0.140476 16.3536 0 16 0C15.6464 0 15.3072 0.140476 15.0572 0.390524C14.8071 0.640573 14.6667 0.979711 14.6667 1.33333V6.77333C13.932 6.8769 13.2125 7.06897 12.524 7.34533L9.79867 2.64267C9.61628 2.34786 9.32626 2.13568 8.99007 2.05111C8.65389 1.96654 8.29798 2.01622 7.99781 2.18963C7.69764 2.36304 7.47681 2.64654 7.38214 2.98002C7.28746 3.3135 7.32639 3.67074 7.49067 3.976L10.2187 8.68667C9.65068 9.1371 9.13661 9.65162 8.68667 10.22L3.98 7.49067C3.82822 7.39677 3.65913 7.33429 3.48275 7.30695C3.30638 7.27961 3.12631 7.28796 2.95322 7.3315C2.78013 7.37505 2.61755 7.4529 2.47511 7.56044C2.33267 7.66799 2.21327 7.80303 2.12399 7.95758C2.0347 8.11213 1.97736 8.28302 1.95535 8.46014C1.93334 8.63726 1.94712 8.81699 1.99587 8.98869C2.04461 9.16039 2.12733 9.32055 2.23912 9.45968C2.35091 9.59881 2.4895 9.71409 2.64667 9.79867L7.34533 12.524C7.06926 13.2126 6.87721 13.9321 6.77333 14.6667H1.33333C0.979711 14.6667 0.640573 14.8071 0.390524 15.0572C0.140476 15.3072 0 15.6464 0 16C0 16.3536 0.140476 16.6928 0.390524 16.9428C0.640573 17.1929 0.979711 17.3333 1.33333 17.3333H6.77333C6.87721 18.0679 7.06926 18.7874 7.34533 19.476L2.64267 22.2013C2.4855 22.2859 2.34691 22.4012 2.23512 22.5403C2.12333 22.6795 2.04061 22.8396 1.99187 23.0113C1.94312 23.183 1.92934 23.3627 1.95135 23.5399C1.97336 23.717 2.0307 23.8879 2.11999 24.0424C2.20927 24.197 2.32867 24.332 2.47111 24.4396C2.61355 24.5471 2.77613 24.625 2.94922 24.6685C3.12231 24.712 3.30238 24.7204 3.47875 24.6931C3.65513 24.6657 3.82422 24.6032 3.976 24.5093L8.68267 21.78C9.13261 22.3484 9.64668 22.8629 10.2147 23.3133L7.49067 28.0213C7.32639 28.3266 7.28746 28.6838 7.38214 29.0173C7.47681 29.3508 7.69764 29.6343 7.99781 29.8077C8.29798 29.9811 8.65389 30.0308 8.99007 29.9462C9.32626 29.8617 9.61628 29.6495 9.79867 29.3547L12.524 24.652C13.2126 24.9287 13.932 25.1216 14.6667 25.2267V30.6667C14.6667 31.0203 14.8071 31.3594 15.0572 31.6095C15.3072 31.8595 15.6464 32 16 32C16.3536 32 16.6928 31.8595 16.9428 31.6095C17.1929 31.3594 17.3333 31.0203 17.3333 30.6667V25.2267C18.0679 25.1225 18.7873 24.9305 19.476 24.6547L22.2013 29.3573C22.3837 29.6521 22.6737 29.8643 23.0099 29.9489C23.3461 30.0335 23.702 29.9838 24.0022 29.8104C24.3024 29.637 24.5232 29.3535 24.6179 29.02C24.7125 28.6865 24.6736 28.3293 24.5093 28.024L21.7813 23.316C22.3493 22.8656 22.8634 22.351 23.3133 21.7827L28.02 24.512C28.1718 24.6059 28.3409 24.6684 28.5172 24.6957C28.6936 24.7231 28.8737 24.7147 29.0468 24.6712C29.2199 24.6276 29.3825 24.5498 29.5249 24.4422C29.6673 24.3347 29.7867 24.1996 29.876 24.0451C29.9653 23.8905 30.0226 23.7196 30.0446 23.5425C30.0667 23.3654 30.0529 23.1857 30.0041 23.014C29.9554 22.8423 29.8727 22.6821 29.7609 22.543C29.6491 22.4039 29.5105 22.2886 29.3533 22.204L24.6507 19.4787C24.9283 18.7893 25.1217 18.069 25.2267 17.3333H30.6667C31.0203 17.3333 31.3594 17.1929 31.6095 16.9428C31.8595 16.6928 32 16.3536 32 16C32 15.6464 31.8595 15.3072 31.6095 15.0572C31.3594 14.8071 31.0203 14.6667 30.6667 14.6667ZM16 22.6667C7.18933 22.3867 7.192 9.612 16 9.33333C24.8107 9.61333 24.808 22.388 16 22.6667Z" fill="#1C3F95"/>
</g>
<defs>
<clipPath id="clip0_369_654">
<rect width="32" height="32" fill="white"/>
</clipPath>
</defs>
</svg>
