<svg width="158" height="278" viewBox="0 0 158 278" fill="none" xmlns="http://www.w3.org/2000/svg">
<path d="M95.5244 314.514C95.9797 316.095 96.7259 317.258 96.7132 318.75C96.7006 320.243 97.0041 322.013 96.6626 323.581C96.2832 325.339 94.5001 327.451 92.7169 327.54L88.4803 327.767C85.9889 329.07 83.2826 329.563 80.7533 328.134C78.224 326.705 72.1536 326.49 69.2196 328.918L59.3679 328.969C57.648 328.969 56.3833 328.349 54.9922 327.388C49.8577 323.809 50.2751 321.684 51.8685 315.096C52.1973 313.73 53.9679 312.718 52.8929 311.011C51.995 309.582 50.3256 308.355 49.1622 307.078C48.6057 306.458 48.1378 305.788 47.5055 305.244C45.5453 303.549 44.7232 302.803 43.8 300.4C42.548 297.175 43.2056 293.925 44.3059 290.89C45.1279 288.652 44.4703 286.603 44.4703 284.314V226.178C44.4703 224.534 44.7232 223.016 44.2553 221.511L43.2056 218.198V185.557C43.2056 183.824 43.7621 182.206 42.7124 180.625C41.8019 179.246 40.1199 178.804 38.4885 178.589C36.8571 178.374 35.9971 176.489 36.3386 174.946C36.8191 172.822 37.7929 170.811 38.0458 168.686C38.3114 166.397 38.3114 163.805 37.9953 161.592C37.7044 159.568 37.97 158.139 37.9953 156.141L38.2608 133.832C38.2735 132.543 38.6529 131.038 38.147 129.76C34.2013 119.921 37.7044 120.503 34.4289 112.523L34.7704 109.817C35.036 107.705 34.2645 106.149 33.0505 104.606C30.2303 100.989 27.2963 105.441 24.1346 104.657C20.973 103.873 20.1004 98.9533 18.0516 97.3472C16.6226 96.2469 15.2568 97.3472 14.0174 97.7139C11.4122 98.4727 8.61731 98.498 5.84771 98.0933C2.85048 97.6507 -1.14583 93.2244 0.30852 90.0501C0.75115 89.0763 1.21907 88.0899 1.44671 87.1034C2.87577 80.8181 5.873 73.4705 9.03464 67.906L10.5016 65.3134L13.2333 60.5457L14.6877 57.9911L15.9397 55.7526L17.3814 53.198L20.7074 47.4818C20.1763 44.4087 22.4906 38.7683 24.0082 36.7701L25.9304 34.2282C29.7244 33.1153 29.383 34.6582 32.4561 33.5706C33.8598 33.0774 39.4243 31.3574 39.7278 33.2923C39.8922 34.2914 38.6149 33.8361 36.503 35.8217C36.0097 36.2896 35.3142 37.0737 35.3774 37.5922C35.6177 39.818 37.54 39.6536 37.6412 41.6897C37.6791 42.5117 36.9709 43.1314 36.3891 43.8016L33.3287 47.2794C30.3441 50.6814 28.5862 50.3399 24.4761 56.5494C22.5032 59.5339 22.1365 63.1256 20.8971 66.401C19.9866 68.8292 16.1673 76.3033 19.4807 78.4279C22.225 80.1858 24.0208 76.8091 27.8274 76.3286C31.6087 74.0775 29.1933 73.7107 34.2772 71.4849C35.3648 71.017 36.5662 69.7397 37.6159 69.0568C40.8281 68.8798 43.5471 67.9313 46.4685 66.7172C48.6437 65.8193 51.1477 66.9195 53.4114 66.7298C55.1819 66.5907 56.7248 66.224 58.4447 66.8563L61.1132 65.7687C62.3019 63.2647 69.0173 58.2187 67.1329 55.74C66.4121 54.7915 64.7807 54.0833 63.8448 53.2613C62.5928 52.161 60.2153 49.7202 59.6209 48.582C58.938 47.2415 58.7103 46.1286 57.2433 45.471C56.1937 45.0031 55.5993 43.9534 55.0302 42.929L53.7023 40.5515L52.3491 38.1486C49.5416 33.1532 55.3969 32.4577 52.7664 27.9176C52.5135 27.4876 51.9571 26.3367 51.9318 25.8309C51.78 23.1625 51.7294 20.0261 51.9571 17.2818C52.0076 16.6242 55.8396 9.97209 56.0166 9.82034L60.4682 5.88726C61.3534 5.10317 62.1249 3.535 63.0101 2.83944C65.0083 1.853 67.1076 0.790694 69.2955 0.386004C73.4688 -0.372789 77.8951 0.0319006 81.8409 1.20803C83.9276 1.82771 85.5463 3.14295 87.3421 4.09144C88.278 4.58466 89.0368 4.9767 89.8461 5.68491C93.0331 8.51774 93.2101 7.87277 95.0818 10.478C96.7891 12.8429 97.4088 15.1698 97.9399 18.0153C98.3067 19.9629 99.0528 21.7713 98.4331 23.8201C97.5732 26.6782 100.153 28.6763 100.988 30.3583C102.328 33.0394 101.494 35.9861 99.9001 38.4268C98.8631 40.0077 97.9779 42.3093 96.005 42.8278C91.8316 43.9155 92.5146 45.8124 91.1993 48.7717L89.7703 51.9966C89.277 53.1095 88.9988 54.8041 89.9979 55.7273C93.1975 58.636 93.8172 57.1311 97.2697 61.9494C101.569 67.9692 103.707 64.7696 105.793 64.9593L110.776 65.4272L114.684 65.8699C117.529 66.1987 119.793 67.3369 121.829 69.373L126.711 70.6882L128.405 72.5093C128.873 73.0152 129.556 74.0775 129.986 74.5834L133.072 75.9745C134.122 76.455 135.627 77.138 136.651 76.4677C138.004 75.5824 137.094 74.0648 136.575 73.1037L134.956 70.0306L132.516 64.8581L129.518 59.8501C128.279 57.7761 126.736 56.1447 124.586 54.9938C123.271 54.2856 122.297 51.8575 117.631 50.6434C116.53 51.0355 115.291 51.6551 114.165 51.769C113.116 51.8701 112.547 50.8711 112.117 50.049C110.574 47.0518 107.21 48.7844 107.551 44.8766C107.665 43.6246 105.692 43.0681 104.605 43.5866C104.149 43.8016 103.277 43.4855 103.062 43.0808C102.746 42.4864 103.277 41.8035 103.884 41.5885L105.996 40.8423L113.369 38.7809C114.987 38.3257 116.467 36.9851 118.25 38.0854C120.742 39.6156 122.664 41.9299 124.966 43.8522C125.901 44.6363 127.305 45.2307 128.266 46.1539C129.809 47.6335 131.314 48.9108 133.072 49.9858C135.02 52.3128 136.929 54.488 138.7 56.8782C139.282 57.6623 139.8 58.459 140.42 59.2051L142.279 61.4309L144.998 65.2375C148.577 70.2456 148.526 69.0442 151.84 75.5445L154.268 80.2996C155.191 82.1081 155.937 84.0683 156.784 85.9526C157.935 88.5325 157.847 91.1377 156.266 93.3635C154.685 95.5893 152.27 96.2975 149.386 96.1584C147.135 96.0446 144.871 96.1584 142.81 95.1719C139.029 93.3508 137.347 98.0427 135.854 100.913C135.538 101.521 134.463 102.57 133.881 102.912C132.313 103.835 130.429 103.063 129.177 102.064C126.66 101.558 123.764 101.622 122.297 103.835C121.893 104.455 121.323 105.605 121.096 106.326L119.098 112.827C118.541 114.622 117.618 116.545 117.631 118.48L117.694 127.838C117.694 129.545 117.782 131.632 117.378 133.225C116.872 135.249 117.428 136.602 117.454 138.524L117.694 156.837C117.757 162.123 119.313 158.734 119.085 166.827C119.022 168.914 119.161 171.178 119.325 173.34C119.452 175.086 120.868 176.805 119.907 178.627C118.099 182.079 113.002 179.17 110.283 182.092C109.018 183.458 108.816 184.95 108.879 186.834L108.993 189.907C109.044 191.185 109.334 192.5 108.955 193.714C108.222 196.041 107.551 198.292 107.564 200.619L107.652 210.496C107.678 213.367 105.819 212.81 106.489 222.624C106.641 224.799 105.92 226.772 105.616 228.884C105.25 231.439 105.578 234.044 105.465 236.674C105.414 237.876 104.693 239.064 104.352 240.228C103.53 242.985 104.579 246.071 104.137 248.828L103.112 255.303C102.455 259.451 101.291 267.443 100.128 271.035C99.3311 273.501 99.1414 275.879 97.6997 278.155C97.0926 279.129 96.7006 280.899 96.0556 281.721C93.893 283.757 93.5263 286.464 95.6003 288.639C96.3465 289.423 97.0926 290.435 97.8388 291.32C99.0275 292.749 99.799 294.267 98.7493 296.202C96.1821 300.944 97.08 300.893 94.4621 305.105C93.2734 307.002 93.7413 308.671 94.3357 310.732L95.4359 314.514H95.5244Z" fill="#E3EEF9"/>
</svg>
