<svg width="200" height="274" viewBox="0 0 200 274" fill="none" xmlns="http://www.w3.org/2000/svg">
<path d="M84.6174 306.035L68.3334 305.974C65.8847 305.974 65.297 302.766 65.8357 301.052C67.3294 296.412 71.6882 295.751 74.3083 292.91L77.3814 289.592C81.1647 285.49 79.5485 286.862 80.7974 283.348C81.3483 281.793 81.4708 280.348 80.8464 278.793C80.3933 277.691 80.5403 276.247 80.2709 275.108C79.2669 270.97 78.4711 267.027 77.8099 262.803C77.5406 261.077 77.0998 259.314 76.6713 257.636C76.2428 255.959 76.0101 254.294 75.6673 252.555L74.4552 246.544C73.941 243.985 73.9287 241.499 73.2798 238.965L72.2758 235.022L72.1412 228.693C72.1044 226.856 71.7983 225.142 71.9208 223.281C72.0065 221.897 71.6269 220.648 71.4555 219.277C70.8556 214.6 72.4105 212.886 69.6557 209.837C67.1335 207.034 69.5945 205.846 61.3791 205.209L58.3182 204.977C56.2245 204.818 54.4859 204.23 53.0779 202.552C51.119 200.226 51.2414 197.178 51.927 194.251C52.6127 191.325 51.1067 190.395 53.029 184.493C53.6534 182.559 53.2738 180.477 53.2738 178.384V149.464C53.2738 148.375 53.5554 147.003 53.7513 145.999C54.5227 142.069 53.9962 143.673 53.4697 138.923C53.1147 135.776 53.1759 131.895 54.0819 128.932L55.6491 123.802C55.845 123.141 55.5634 121.99 55.1348 121.525C53.6656 119.945 51.5842 121.659 49.4661 120.068C47.7642 118.782 46.1603 117.582 44.1646 116.933C36.5246 114.448 38.1653 113.982 35.0676 112.428C32.521 111.154 30.9293 108.767 28.6887 107.126C26.6685 105.645 24.8443 104.249 22.9343 102.62C21.3793 101.286 19.6652 99.7922 20.6569 97.4659C21.3181 95.9232 21.1467 94.3438 19.8121 93.0827C17.1186 90.5238 20.4733 90.7197 16.8002 85.8835C16.0044 84.8428 15.0249 83.7408 13.7148 83.5327L8.29094 82.6757C5.95242 82.3083 3.46697 82.3083 1.52024 80.582C0.295888 79.5046 -0.255073 77.3987 0.112234 75.8682C1.16518 71.4728 6.09934 74.3378 5.328 72.4768C5.00966 71.7177 4.76479 71.0075 4.71582 70.4321C4.66684 69.9056 5.68306 69.0118 6.20953 69.0731C9.67446 69.5138 12.7476 69.7464 16.2125 69.6363C20.0325 69.5138 17.9634 72.4768 25.1136 75.5377C25.9339 75.8927 26.9134 76.8967 27.7215 77.4966C34.0147 76.8477 31.9578 83.3735 38.3122 83.6674C39.9283 85.0632 41.7036 86.2998 43.0627 87.8424C43.0994 87.8792 45.4135 92.5195 48.0091 90.7809C48.3886 90.5238 48.6335 89.3851 48.5111 88.9199L47.3847 84.953C47.2745 82.8226 48.9518 81.2432 49.9436 79.5658L52.6616 74.9132C53.482 73.5052 54.2288 72.1952 55.0124 70.6892C55.7348 69.3179 57.4856 68.3752 57.9754 66.7835C58.7222 64.3715 63.436 57.2458 65.1623 56.2785L70.6107 53.2421L73.1207 51.5403L75.2755 50.0833C76.8672 49.0058 79.1445 49.4221 81.0055 49.716C83.2094 50.0588 82.8053 45.4307 82.6829 45.0879C81.9115 43.031 80.0872 42.2229 78.2017 41.5617C77.0631 41.1577 75.8877 39.7374 75.7163 38.5621C75.4714 36.8725 75.2388 35.4889 74.8715 33.8728C74.4797 32.1587 74.7735 30.2242 74.7735 28.4244C74.7735 25.8532 73.9777 23.1964 74.5532 20.9191C74.8715 19.658 75.6673 18.3847 75.7775 17.1358C75.9367 15.3727 76.2673 13.9158 77.161 12.422C77.7855 11.3813 78.2752 10.108 78.9853 9.18973C80.6505 7.04711 82.4747 5.25955 84.5562 3.56993C86.6376 1.88032 89.3434 1.40282 92.037 0.790644C96.2243 -0.164355 100.644 -0.59288 104.599 1.50077C106.178 2.33333 107.476 3.86378 109.007 4.83102C110.415 5.71256 111.443 6.74102 112.263 8.198C113.084 9.65499 114.675 10.8059 115.312 12.2751C116.769 15.6666 117.295 19.254 118.042 22.8413C119.022 24.6289 119.316 26.7225 118.581 28.657C117.075 32.6484 121.103 33.2239 117.185 41.4026C116.622 42.5902 115.434 43.4717 116.524 45.0267C118.201 47.4019 117.528 48.6508 118.483 49.4711C119.867 50.6587 121.936 48.2222 123.699 50.4506C124.225 51.1117 125.364 51.5158 126.233 51.8341L131.131 53.6094C133.947 54.6256 136.677 56.303 138.832 58.4211C142.064 61.5922 141.244 64.4817 144.782 68.7302C145.884 70.0525 145.713 72.2074 146.46 73.7134C147.476 75.7458 148.602 77.4844 149.153 79.7739C149.533 81.3656 150.561 82.9083 151.48 84.2673C151.859 84.8305 152.459 86.6426 153.512 86.0304C157.075 83.998 159.291 80.8881 163.576 78.9903C165.731 78.0353 167.763 76.811 169.869 75.6968C171.645 75.5866 173.579 75.4275 175.097 74.5704C181.599 70.8606 183.729 74.6806 188.541 74.448C189.888 74.3868 191.161 74.7418 192.483 74.9377C198.691 75.856 193.977 79.3944 198.103 80.631C199.193 80.9616 200.429 82.4553 199.854 83.6919C198.789 85.9569 194.295 87.9037 192.789 87.9404C190.451 87.9771 188.174 88.1118 185.97 87.7812C183.656 87.4384 180.534 84.8183 176.591 89.2872L176.003 92.7766C175.722 94.4907 172.979 94.1234 172.367 96.8537C171.755 99.584 169.049 102.033 168.106 104.861C165.486 112.709 160.993 110.052 160.638 115.28C160.54 116.725 160.246 118.488 159.328 119.615C157.479 121.88 154.222 124.083 151.222 124.071L142.138 124.034C136.922 124.01 133.261 118.231 132.661 120.594C132.257 122.21 132.563 123.961 132.759 125.626C132.979 127.548 132.037 129.36 131.78 131.197C131.192 135.458 131.841 139.743 132.49 144.004C134.277 155.733 128.241 154.496 128.119 157.08L127.849 162.932C127.764 164.646 126.809 166.336 127.09 168.087C127.458 170.327 126.343 172.164 126.074 174.233C125.793 176.449 125.633 178.616 125.144 180.832L123.931 186.342C123.589 187.909 123.589 189.574 122.915 191.044C122.181 192.623 122.438 194.423 122.156 196.149L121.152 202.442C120.871 204.181 119.842 205.858 119.683 207.756C117.638 209.862 114.994 211.147 112.006 211.49C110.219 211.698 108.247 212.727 107.929 214.661C107.66 216.29 107.427 217.857 106.901 219.424C106.582 220.367 106.558 221.432 106.803 222.424L108.088 227.799C108.615 229.978 109.533 231.509 109.986 233.847L111.027 239.246L110.99 255.139C110.99 256.816 109.815 258.616 109.937 260.305C110.096 262.399 109.374 264.162 109.166 266.133C108.86 269.121 108.59 278.842 110.011 281.266L111.651 284.095C112.814 286.078 113.892 291.784 113.941 294.049C113.977 295.959 113.635 298.114 113.267 299.962C112.863 301.921 111.97 303.868 111.284 305.68C110.329 308.227 107.978 309.463 105.395 309.427L99.3219 309.353C98.8199 309.353 97.7547 308.937 97.1915 308.876C95.8325 308.729 94.4367 308.716 93.1634 308.276C90.8493 307.48 91.6697 303.011 89.2087 304.076L84.6786 306.035H84.6174Z" fill="#E3EEF9"/>
</svg>
