<svg width="44" height="48" viewBox="0 0 44 48" fill="none" xmlns="http://www.w3.org/2000/svg">
<path d="M34.7901 37.3153L43.0509 10.3308C43.1127 10.1289 43.0837 9.91381 42.9629 9.73689C42.8486 9.56202 42.6651 9.44691 42.4526 9.42606L21.759 7.33253C21.427 7.29717 21.1158 7.50379 21.0168 7.82696L13.8319 31.297C12.3902 30.5979 10.3833 30.1013 8.78422 30.0831C6.80747 30.0596 4.93015 30.5453 3.50342 31.4413C1.97653 32.4025 1.11992 33.7234 1.09608 35.1594C1.05904 37.3056 2.87191 39.1271 5.54612 39.9457C6.47977 40.2316 7.51671 40.3944 8.62107 40.4084C12.4863 40.4577 15.6785 38.6073 16.1974 36.0785L20.9111 20.6809L35.6373 22.0154L32.4076 32.5654C30.9659 31.8663 28.959 31.3698 27.3599 31.3515C25.3832 31.3281 23.5058 31.8137 22.0791 32.7098C20.5522 33.6709 19.6956 34.9918 19.6718 36.4278C19.6246 39.322 22.9297 41.6298 27.1968 41.6769C31.0399 41.7268 34.228 39.8899 34.7814 37.32L34.7901 37.3153ZM22.5934 15.2093L23.0304 13.782L37.7113 15.2646L37.3217 16.537L22.5955 15.2026L22.5934 15.2093Z" fill="white"/>
</svg>
