<svg width="67" height="80" viewBox="0 0 67 80" fill="none" xmlns="http://www.w3.org/2000/svg">
<g clip-path="url(#clip0_289_207)">
<path d="M20.0834 70.7178L16.7876 79.7839H13.1881L12.6306 77.5681C12.225 75.9385 11.9543 74.7161 11.8363 73.8887C11.7684 74.5256 11.5326 75.748 11.11 77.5427L10.5865 79.7839H6.953L3.65723 70.7178H7.2907L7.89911 72.7676C8.35564 74.3465 8.64243 75.7978 8.77822 77.1225C8.88007 76.1805 9.16685 74.7415 9.67431 72.8314L10.2318 70.7178H13.4936L13.9841 72.5256C14.5246 74.5754 14.8462 76.1037 14.9472 77.1225C15.0821 75.8616 15.4207 74.2705 15.9782 72.3473L16.4517 70.7178H20.0852H20.0834Z" fill="#001F6C"/>
<path d="M20.1327 70.7178L26.6054 70.7309C27.1129 70.7309 27.6025 70.7693 28.076 70.8585C28.5495 70.9353 29.0051 71.0751 29.4447 71.2656C29.8842 71.4561 30.222 71.7366 30.4927 72.1062C30.7634 72.4627 30.8983 72.8952 30.8983 73.4046C30.8983 73.914 30.7294 74.3343 30.4087 74.7415C30.0879 75.1364 29.6654 75.4291 29.124 75.6196C29.6645 75.7218 30.0701 75.9892 30.3577 76.4348C30.6284 76.8673 30.8143 77.3514 30.8813 77.8608L30.9992 78.8158C31.0501 79.2999 31.1511 79.6179 31.303 79.7962H27.6525C27.5507 79.631 27.4667 79.3506 27.4327 78.9434L27.3818 78.434C27.3479 78.1282 27.2969 77.8739 27.2469 77.6956C27.196 77.5043 27.112 77.3138 26.9762 77.1356C26.8413 76.9451 26.6385 76.8044 26.3678 76.7153C26.0971 76.6384 25.7424 76.5877 25.3368 76.5877H23.7823V79.7839H20.1318V70.7178H20.1327ZM23.7832 72.8314V74.6908H25.8112C26.8083 74.6908 27.3157 74.3727 27.3157 73.7489C27.3157 73.125 26.7412 72.8323 25.6084 72.8323H23.7832V72.8314Z" fill="#001F6C"/>
<path d="M37.6619 70.476C39.4532 70.476 40.9067 70.9216 42.0047 71.7997C43.1206 72.6779 43.6611 73.8242 43.6611 75.2502C43.6611 76.6762 43.1206 77.8217 42.0047 78.6876C40.8898 79.5657 39.4362 79.9991 37.611 79.9991C35.7857 79.9991 34.2821 79.5657 33.1493 78.7007C32.0343 77.8348 31.459 76.6762 31.459 75.2371C31.459 73.798 32.0334 72.6525 33.1493 71.7866C34.2813 70.9207 35.7857 70.4751 37.6619 70.4751V70.476ZM37.5949 72.7041C36.8516 72.7041 36.2762 72.933 35.8545 73.3664C35.432 73.812 35.2122 74.4228 35.2122 75.1995C35.2122 76.0148 35.432 76.6386 35.8376 77.0842C36.2601 77.5299 36.8516 77.7466 37.6119 77.7466C38.3722 77.7466 38.9466 77.5299 39.3361 77.0842C39.7417 76.6386 39.9276 75.9894 39.9276 75.1235C39.9276 74.3721 39.7248 73.7867 39.3192 73.3533C38.9136 72.9199 38.3391 72.7041 37.5958 72.7041H37.5949Z" fill="#001F6C"/>
<path d="M55.8325 76.2059C55.7306 77.4152 55.1561 78.3448 54.1091 79.0072C53.0611 79.6695 51.7773 80.0006 50.2388 80.0006C48.4306 80.0006 46.977 79.555 45.879 78.6384C44.7641 77.7341 44.2227 76.6008 44.2227 75.2386C44.2227 73.8764 44.7801 72.7554 45.913 71.8519C47.0449 70.9476 48.5155 70.502 50.3237 70.502C51.7773 70.502 53.0281 70.8331 54.0751 71.5208C55.1231 72.2084 55.6806 73.0612 55.7815 74.08H52.199C52.0971 73.6728 51.8782 73.3539 51.5396 73.1381C51.2019 72.9092 50.7624 72.8069 50.2549 72.8069C49.7144 72.8069 49.2579 72.9345 48.8862 73.1888C48.5146 73.443 48.2778 73.7489 48.1429 74.0931C48.008 74.4496 47.9401 74.8192 47.9401 75.2264C47.9401 75.9901 48.1429 76.5764 48.5485 77.0089C48.9541 77.4414 49.5286 77.6581 50.2558 77.6581C51.3547 77.6581 51.9962 77.174 52.199 76.2068H55.8325V76.2059Z" fill="#001F6C"/>
<path d="M57.2174 37.334C62.6207 37.334 67.0001 41.618 67.0001 46.9017C67.0001 52.1853 62.6207 56.4694 57.2174 56.4694C51.814 56.4694 47.4346 52.1853 47.4346 46.9017C47.4346 41.618 51.814 37.334 57.2174 37.334ZM57.2174 40.8054C53.097 40.8054 49.5823 43.3402 48.2136 46.9017C49.5823 50.4632 53.097 52.9979 57.2174 52.9979C61.3377 52.9979 64.8524 50.4632 66.2211 46.9017C64.8524 43.3402 61.3377 40.8054 57.2174 40.8054Z" fill="#001F6C"/>
<path d="M57.2176 41.6157C60.2025 41.6157 62.6227 43.9827 62.6227 46.902C62.6227 49.8212 60.2025 52.1883 57.2176 52.1883C54.2327 52.1883 51.8125 49.8212 51.8125 46.902C51.8125 43.9827 54.2327 41.6157 57.2176 41.6157Z" fill="#001F6C"/>
<path d="M46.1729 46.8581C46.1729 41.3429 50.3827 36.7889 55.8315 36.1021C53.5498 34.0156 50.3862 32.4917 46.4079 31.5236C49.8297 30.7704 53.607 28.9434 55.367 26.5894C57.127 24.3299 58.6476 21.5146 58.6476 17.9366C58.6476 14.7351 57.6827 11.5598 55.9227 9.11156C54.2609 6.66328 51.4315 4.35742 48.5968 3.03891C45.8594 1.7204 43.0505 1.07644 40.0201 0.417618C37.0861 -0.146833 33.2409 0.0244246 30.0139 0.0244246C21.8018 0.0244246 14.0845 1.19177 9.19671 4.39324C4.308 7.68907 1.73678 12.4686 1.73678 18.0239C1.73678 24.8026 7.0713 29.4519 14.1104 31.5236C5.11564 33.4065 0 38.5338 0 46.8197C0 49.9268 0.408286 52.6573 1.67871 55.0112C2.95002 57.4595 4.79044 59.3424 6.84348 60.7544C8.79914 62.2608 10.1669 62.8681 12.9043 63.81C15.6417 64.7519 18.7517 64.9188 21.3917 65.2954C24.1291 65.672 27.5705 65.6449 30.5035 65.6449C34.1209 65.6449 37.6963 65.2517 41.3137 64.8716C44.6381 64.1184 47.4175 63.9568 50.3505 62.4504C52.6912 61.2481 54.7193 59.685 56.3381 57.6674C50.6462 57.2078 46.1738 52.5446 46.1738 46.8599L46.1729 46.8581ZM22.2994 13.7381C24.1568 12.6084 26.7878 11.6 29.9166 11.6C37.0531 11.6 40.5731 14.9955 40.5731 19.3267C40.5731 21.5863 39.6931 23.2814 37.8357 24.5999C36.0757 25.9184 33.5339 26.4828 30.3079 26.4828C27.0818 26.4828 24.3444 25.9184 22.487 24.6943C20.6296 23.4701 19.6513 21.7759 19.6513 19.5155C19.6513 17.4438 20.5394 14.9632 22.2994 13.739V13.7381ZM39.2098 51.5135C37.3524 52.832 33.7296 54.1899 30.2105 54.1899C26.6914 54.1899 23.141 53.3563 21.1853 51.9434C19.2296 50.6249 18.2523 47.9486 18.2523 45.4068C18.2523 42.865 19.319 40.9008 21.1764 39.5832C23.132 38.2647 26.3965 37.4241 29.8183 37.4241C33.24 37.4241 36.6198 38.0899 38.5754 39.4084C40.5311 40.8204 42.0445 43.0538 42.0445 45.5012C42.0445 47.9486 41.1645 50.195 39.2098 51.5135Z" fill="#001F6C"/>
<path d="M46.1729 46.8581C46.1729 41.3429 50.3827 36.7889 55.8315 36.1021C53.5498 34.0156 50.3862 32.4917 46.4079 31.5236C49.8297 30.7704 53.607 28.9434 55.367 26.5894C57.127 24.3299 58.6476 21.5146 58.6476 17.9366C58.6476 14.7351 57.6827 11.5598 55.9227 9.11156C54.2609 6.66328 51.4315 4.35742 48.5968 3.03891C45.8594 1.7204 43.0505 1.07644 40.0201 0.417618C37.0861 -0.146833 33.2409 0.0244246 30.0139 0.0244246C21.8018 0.0244246 14.0845 1.19177 9.19671 4.39324C4.308 7.68907 1.73678 12.4686 1.73678 18.0239C1.73678 24.8026 7.0713 29.4519 14.1104 31.5236C5.11564 33.4065 0 38.5338 0 46.8197C0 49.9268 0.408286 52.6573 1.67871 55.0112C2.95002 57.4595 4.79044 59.3424 6.84348 60.7544C8.79914 62.2608 10.1669 62.8681 12.9043 63.81C15.6417 64.7519 18.7517 64.9188 21.3917 65.2954C24.1291 65.672 27.5705 65.6449 30.5035 65.6449C34.1209 65.6449 37.6963 65.2517 41.3137 64.8716C44.6381 64.1184 47.4175 63.9568 50.3505 62.4504C52.6912 61.2481 54.7193 59.685 56.3381 57.6674C50.6462 57.2078 46.1738 52.5446 46.1738 46.8599L46.1729 46.8581ZM22.2994 13.7381C24.1568 12.6084 26.7878 11.6 29.9166 11.6C37.0531 11.6 40.5731 14.9955 40.5731 19.3267C40.5731 21.5863 39.6931 23.2814 37.8357 24.5999C36.0757 25.9184 33.5339 26.4828 30.3079 26.4828C27.0818 26.4828 24.3444 25.9184 22.487 24.6943C20.6296 23.4701 19.6513 21.7759 19.6513 19.5155C19.6513 17.4438 20.5394 14.9632 22.2994 13.739V13.7381ZM39.2098 51.5135C37.3524 52.832 33.7296 54.1899 30.2105 54.1899C26.6914 54.1899 23.141 53.3563 21.1853 51.9434C19.2296 50.6249 18.2523 47.9486 18.2523 45.4068C18.2523 42.865 19.319 40.9008 21.1764 39.5832C23.132 38.2647 26.3965 37.4241 29.8183 37.4241C33.24 37.4241 36.6198 38.0899 38.5754 39.4084C40.5311 40.8204 42.0445 43.0538 42.0445 45.5012C42.0445 47.9486 41.1645 50.195 39.2098 51.5135Z" fill="#001F6C"/>
</g>
<defs>
<clipPath id="clip0_289_207">
<rect width="67" height="80" fill="white"/>
</clipPath>
</defs>
</svg>
