<svg width="41" height="46" viewBox="0 0 41 46" fill="none" xmlns="http://www.w3.org/2000/svg">
<path d="M38.4256 28.1252L33.5932 0.719214C33.5551 0.503589 33.4193 0.312619 33.2254 0.206001C33.0315 0.0993822 32.8033 0.0877486 32.5999 0.175492L12.7594 8.68373C12.4536 8.81176 12.2792 9.14637 12.3375 9.47699L16.3752 32.3764C14.7246 32.4081 12.6434 32.8936 11.1748 33.6269C9.35029 34.5341 7.85577 35.8648 6.96716 37.3629C6.01718 38.9681 5.85096 40.5908 6.50269 41.9284C7.47548 43.9283 9.99315 44.759 12.8306 44.2587C13.8213 44.084 14.849 43.7472 15.8688 43.2413C19.438 41.4707 21.4987 38.2615 20.7885 35.6817L17.0954 14.7373L31.1444 8.55458L34.0124 24.8199C32.3618 24.8516 30.2805 25.3372 28.812 26.0704C26.9874 26.9776 25.4929 28.3083 24.6043 29.8064C23.6543 31.4116 23.4881 33.0343 24.1398 34.3719C25.4542 37.0675 29.569 37.6463 33.5059 35.6848C37.0751 33.9142 39.1358 30.705 38.4256 28.1252Z" fill="#E63946"/>
</svg>
