<svg width="24" height="43" viewBox="0 0 24 43" fill="none" xmlns="http://www.w3.org/2000/svg">
<path d="M18.0581 22.1073C17.0028 20.9027 15.6247 20.2039 13.965 20.0181C13.9317 19.243 13.8859 18.4586 13.8457 17.6824L13.8234 17.2867C14.2616 17.0506 14.6191 16.7504 14.9672 16.4628L15.0748 16.3749C19.2226 12.9327 20.733 9.467 19.8304 5.46899C19.6002 4.44553 18.8588 2.94734 18.0346 2.23937C17.5598 1.79954 16.9454 1.66982 16.3011 1.8696C15.589 2.09302 14.9579 2.45893 14.431 2.95716C13.5971 3.75026 12.9231 4.72111 12.3273 6.01199C11.4031 7.99994 11.072 10.1993 11.2891 12.944C11.3155 13.2763 11.2827 13.3417 10.9989 13.5053C9.35478 14.4761 7.61072 15.5716 6.03529 16.996C3.03729 19.7009 2.15869 23.278 3.62574 26.8057C5.0077 30.1333 8.42627 32.3528 12.1384 32.345C12.174 32.3442 12.2164 32.3445 12.2451 32.3425C12.2515 32.3863 12.2511 32.429 12.2575 32.4729L12.4454 35.3834C12.4909 36.0893 12.4302 36.6342 12.2557 37.102C11.9868 37.8237 11.2755 38.4034 10.3545 38.647C9.88645 38.771 9.42298 38.789 8.96846 38.716C9.92685 38.3009 10.6 37.4154 10.6453 36.3551C10.6843 35.5714 10.3589 34.7662 9.76788 34.142C9.17563 33.5248 8.38922 33.1654 7.60815 33.1772C6.10461 33.1898 4.99082 33.8837 4.38322 35.201C3.7991 36.4655 4.02995 37.7668 5.05083 38.9653C5.93811 39.9978 7.04391 40.6343 8.36258 40.8669C8.87083 40.9565 9.40377 40.9864 9.97514 40.9589C11.7341 40.8631 13.0018 40.2604 13.8578 39.1009C14.7404 37.9104 14.8074 36.5263 14.7703 35.4514C14.7229 34.154 14.6677 33.0616 14.6044 31.975C15.1932 31.8082 15.7967 31.5585 16.439 31.2088C18.0201 30.3552 19.1147 28.846 19.4358 27.0651C19.7594 25.2704 19.2643 23.4595 18.0661 22.1016L18.0581 22.1073ZM14.4713 29.6369C14.3827 27.8905 14.2953 26.1373 14.2002 24.3471C15.5654 24.9582 16.2917 26.2614 16.0447 27.742C15.8473 28.5405 15.3154 29.1874 14.4713 29.6369ZM7.04044 27.8423C5.72044 26.2919 5.5939 24.4392 6.67347 22.614C7.53009 21.1697 8.82917 20.188 10.513 19.153C10.7749 18.9927 11.0494 18.8416 11.3158 18.6963C11.3943 18.6532 11.4808 18.6043 11.5592 18.5612C11.5826 19.071 11.6104 19.5958 11.6484 20.1438C10.564 20.4298 9.60189 20.9866 8.79186 21.8052C7.08485 23.5341 6.96543 26.2194 8.51753 28.06C9.06248 28.7045 9.61727 29.1727 10.2332 29.495C11.0955 29.9461 11.5517 29.4069 11.6751 29.2293C11.7985 29.0516 12.1365 28.4204 11.3264 27.7932C11.2582 27.7384 11.1887 27.6906 11.1205 27.6358C10.4897 27.197 10.1742 26.657 10.2041 26.0854C10.2382 25.4504 10.699 24.8052 11.406 24.41C11.594 24.3078 11.7347 24.2329 11.8361 24.1796C11.8453 24.288 11.8565 24.4253 11.8661 24.6122L11.9392 26.0851C12.0011 27.4207 12.063 28.7564 12.1468 30.0888C11.7629 30.0567 11.3828 30.0039 11.0163 29.9535C11.0163 29.9535 10.982 29.9475 10.9614 29.9438C9.27867 29.6471 7.99796 28.9584 7.04853 27.8366L7.04044 27.8423ZM13.5745 11.951C13.5728 11.559 13.5869 11.1983 13.6327 10.9784C13.6352 10.9646 13.6364 10.9577 13.6388 10.9439C13.9197 9.39094 14.4371 8.26426 15.3139 7.30781C15.6119 6.98289 15.9386 6.77697 16.3125 6.66483C16.4539 6.62568 16.5755 6.61863 16.6854 6.63801C16.7747 6.65375 16.8466 6.6878 16.908 6.74135C17.0433 6.85779 17.1053 7.06815 17.0796 7.33427C16.9729 8.34105 16.5071 9.25601 15.6266 10.2332C15.0466 10.8716 14.3746 11.4297 13.5745 11.951Z" fill="#E63946"/>
</svg>
