<svg width="50" height="50" viewBox="0 0 50 50" fill="none" xmlns="http://www.w3.org/2000/svg">
<path d="M5.71727 16.59C5.41575 16.2242 5.22448 15.7801 5.16575 15.3097C5.10702 14.8393 5.18326 14.3619 5.38557 13.9331C5.58789 13.5044 5.90794 13.142 6.30839 12.8882C6.70884 12.6345 7.17319 12.4999 7.64727 12.5L42.6423 12.5C44.9598 12.5 46.0298 15.375 44.2798 16.89L34.0973 25.7C33.6908 26.0521 33.3647 26.4874 33.1413 26.9766C32.9178 27.4657 32.8022 27.9972 32.8023 28.535L32.8023 42.515C32.8023 44.86 29.8623 45.915 28.3723 44.105L5.71727 16.59Z" fill="#E63946"/>
</svg>
