<svg width="101" height="70" viewBox="0 0 101 70" fill="none" xmlns="http://www.w3.org/2000/svg">
<path d="M31.9602 47.0734C34.1685 53.3146 31.6751 59.8883 24.1285 62.5585C16.378 65.3009 10.0943 59.2165 7.32306 51.3844C4.16214 42.4509 4.7127 31.4239 13.0751 28.4651C18.0925 26.6898 24.0117 27.0739 26.3154 32.547L26.3443 32.6286C26.3587 32.6694 26.3587 32.6694 26.3587 32.6694C26.5319 33.1589 26.129 33.5768 25.8987 33.7042L20.4602 37.1432C20.4194 37.1577 20.3378 37.1865 20.2562 37.2154C19.9707 37.3164 19.3971 37.3817 19.1278 36.8802C18.3924 35.5799 17.2401 35.4368 15.5677 36.0286C13.8544 36.6348 12.9444 39.2517 13.9547 42.1072C14.1279 42.5967 14.4618 42.8916 14.7065 42.805C14.7881 42.7762 14.8145 42.721 14.8553 42.7065C15.4069 42.19 16.5365 41.1019 18.7393 40.3224C24.9397 38.1286 30.156 41.9744 31.9602 47.0734ZM22.4531 50.2996C22.3954 50.1364 22.3376 49.9732 22.2799 49.8101C21.3806 47.7874 20.1632 47.0707 18.8434 47.4918C17.6196 47.9248 17.4439 50.2819 18.0645 52.036C18.0934 52.1176 18.1367 52.24 18.18 52.3623C18.923 54.0731 19.966 55.7236 21.6121 55.1871C23.1214 54.653 23.1459 52.2576 22.4531 50.2996Z" fill="#E63946"/>
<path d="M88.9874 6.37729C89.0553 6.56908 89.1232 6.76088 89.0959 6.98635L88.2736 42.9401C88.2803 43.2615 88.0457 43.5063 87.7602 43.6073C87.7127 43.6242 87.6651 43.641 87.5699 43.6747L78.5655 44.7026C78.3106 44.7388 78.0185 44.5184 77.9337 44.2787C77.8998 44.1828 77.8828 44.1348 77.9134 44.0701L77.2403 16.1449C77.2709 16.0801 77.2369 15.9842 77.22 15.9362C77.1521 15.7444 76.9415 15.6031 76.6561 15.7041C76.6561 15.7041 76.673 15.7521 76.6254 15.7689L67.5107 19.9651C67.4632 19.9819 67.4632 19.9819 67.4156 19.9988C67.1301 20.0998 66.7599 19.961 66.5459 19.659L60.5467 9.96607C60.5298 9.91812 60.5128 9.87017 60.5128 9.87017C60.411 9.58247 60.5641 9.25855 60.8495 9.15755L83.7846 1.20434C84.1652 1.06967 84.6476 1.2227 84.9091 1.50785L88.6717 5.78761C88.8178 5.89779 88.9026 6.13754 88.9874 6.37729Z" fill="#E63946"/>
<path d="M59.9536 23.739L55.2497 33.712C55.1429 33.9892 55.22 34.3038 55.4471 34.4628L63.2835 40.1012C63.4802 40.271 63.4644 40.5159 63.2323 40.6322L56.342 44.2327C56.0795 44.3598 55.7221 44.3153 55.4951 44.1563L52.1157 41.5567C51.919 41.387 51.635 41.4532 51.5174 41.7L49.5086 45.9667C49.3909 46.2135 49.0589 46.4336 48.7945 46.4587L42.8687 46.6065C42.5936 46.6013 42.4576 46.4101 42.5753 46.1633L46.2982 37.6657C46.4158 37.4189 46.3279 37.0739 46.1008 36.9149L38.6698 31.1672C38.4428 31.0082 38.4586 30.7633 38.6907 30.647L45.008 27.4544C45.2705 27.3273 45.6278 27.3718 45.8549 27.5308L49.159 29.9177C49.386 30.0767 49.67 30.0104 49.7769 29.7332L51.5447 25.6544C51.6624 25.4076 51.9837 25.1571 52.2373 25.1016L59.6924 23.3869C59.946 23.3314 60.0713 23.4922 59.9536 23.739Z" fill="#E63946"/>
</svg>
