<svg width="35" height="43" viewBox="0 0 35 43" fill="none" xmlns="http://www.w3.org/2000/svg">
<path d="M27.9644 16.4147C27.1332 14.8926 26.1953 13.3107 24.928 11.277C24.1148 9.97159 23.5976 8.90423 23.5242 7.63588L23.93 6.22049C24.0885 5.66782 24.093 5.14393 23.9348 4.70469C23.7345 4.15853 23.3098 3.75957 22.7241 3.59163C22.3202 3.47581 20.9563 3.25249 20.3958 5.20708L13.7398 28.4194C12.2774 27.7521 10.2538 27.2886 8.64916 27.2953C6.66543 27.3027 4.79168 27.8157 3.37825 28.7307C1.86564 29.712 1.03274 31.0414 1.03766 32.4725C1.0436 34.6113 2.89902 36.398 5.59848 37.172C6.54093 37.4423 7.59129 37.5903 8.69283 37.5852C12.5737 37.5674 15.7393 35.6742 16.2072 33.1533L21.4234 14.9622C21.9127 15.263 22.4577 15.6235 22.9382 16.0312C26.1345 18.7566 27.0582 22.4205 25.472 26.0723C24.7001 27.8495 23.3996 29.2345 21.7793 30.8706C21.7475 30.9053 21.7109 30.9312 21.6637 30.9688C20.796 31.6828 21.0569 32.2974 21.2932 32.5912C21.5631 32.9458 21.8776 33.0433 22.0959 33.0694C22.6548 33.1275 23.0891 32.7561 23.3569 32.5338C25.049 31.0788 26.4508 29.5186 27.6382 27.7657C30.0382 24.2233 30.1431 20.4021 27.9624 16.4215L27.9644 16.4147Z" fill="#E63946"/>
</svg>
