<svg width="45" height="49" viewBox="0 0 45 49" fill="none" xmlns="http://www.w3.org/2000/svg">
<path d="M40.8962 27.1824L31.2442 0.663695C31.172 0.465202 31.0193 0.310954 30.8163 0.242491C30.6198 0.171642 30.4039 0.190269 30.2217 0.301528L12.4391 11.0898C12.1528 11.2615 12.0287 11.6138 12.1443 11.9314L20.5392 34.9963C18.9672 35.3062 17.0659 36.1182 15.7781 37.0664C14.1858 38.2379 12.9793 39.756 12.3797 41.3305C11.7393 43.0172 11.8507 44.5876 12.6963 45.7485C13.959 47.4843 16.5031 47.8471 19.1312 46.8906C20.0487 46.5566 20.9747 46.0623 21.8649 45.4086C24.9806 43.1206 26.4152 39.7212 25.3068 37.3897L19.7993 22.2579L32.3604 14.4566L36.1341 24.8245C34.5621 25.1344 32.6607 25.9463 31.373 26.8946C29.7806 28.0661 28.5742 29.5842 27.9745 31.1587C27.3342 32.8454 27.4456 34.4158 28.2911 35.5767C29.9961 37.9158 34.0245 37.7684 37.4597 35.2367C40.5582 32.9626 41.9976 29.5764 40.8921 27.1914L40.8962 27.1824ZM17.848 16.8763L17.3375 15.4736L29.9516 7.81788L30.4067 9.06838L17.8456 16.8697L17.848 16.8763Z" fill="#1C3F95"/>
</svg>
