<svg width="402" height="101" viewBox="0 0 402 101" fill="none" xmlns="http://www.w3.org/2000/svg">
<mask id="mask0_437_2392" style="mask-type:luminance" maskUnits="userSpaceOnUse" x="201" y="0" width="101" height="101">
<path d="M201 100.502L201 0.00195312L301.5 0.00194873L301.5 100.502L201 100.502Z" fill="white"/>
</mask>
<g mask="url(#mask0_437_2392)">
<path d="M201 100.502L201 0.00195312L301.5 0.00194873L301.5 100.502L201 100.502Z" fill="#E3EEF9"/>
</g>
<mask id="mask1_437_2392" style="mask-type:luminance" maskUnits="userSpaceOnUse" x="301" y="50" width="101" height="51">
<path d="M301.5 100.502L301.5 50.252L402 50.2519L402 100.502L301.5 100.502Z" fill="white"/>
</mask>
<g mask="url(#mask1_437_2392)">
<path d="M301.58 50.2939C301.58 78.0405 324.065 100.501 351.787 100.501C379.509 100.501 401.994 78.0405 401.994 50.2939L301.58 50.2939Z" fill="#E3EEF9"/>
</g>
<mask id="mask2_437_2392" style="mask-type:luminance" maskUnits="userSpaceOnUse" x="301" y="0" width="101" height="51">
<path d="M301.5 50.252L301.5 0.00195312L402 0.00194879L402 50.2519L301.5 50.252Z" fill="white"/>
</mask>
<g mask="url(#mask2_437_2392)">
<path d="M301.58 0.0439453C301.58 27.7905 324.065 50.2509 351.787 50.2509C379.509 50.2509 401.994 27.7905 401.994 0.043941L301.58 0.0439453Z" fill="#E3EEF9"/>
</g>
<path d="M100.5 0.00194873C100.5 55.508 55.506 100.502 4.39299e-06 100.502L0 0.00195312L100.5 0.00194873Z" fill="#E3EEF9"/>
<path d="M201 100.5C145.494 100.5 100.5 55.506 100.5 8.78599e-06L201 0L201 100.5Z" fill="#E3EEF9"/>
</svg>
