<svg width="166" height="60" viewBox="0 0 166 60" fill="none" xmlns="http://www.w3.org/2000/svg">
<g clip-path="url(#clip0_369_576)">
<path fill-rule="evenodd" clip-rule="evenodd" d="M93.2587 8.23398C92.3348 3.49272 96.6532 -0.891895 101.142 0.157055C104.015 1.1116 106.706 1.62559 109.508 2.42279C117.171 4.36335 124.784 5.96825 132.476 7.44727C140.069 8.83188 147.742 10.4263 155.364 11.7165C158.337 12.1361 161.762 12.0522 164.152 14.1396C166.171 16.5941 166.803 20.0871 164.724 22.9403C162.384 25.8354 159.181 27.6396 156.419 29.8633C148.314 36.4508 139.436 42.0522 131.091 48.3144C127.776 50.5592 124.563 52.9193 121.359 55.3109C117.352 57.8599 111.447 63.0941 107.5 57.5452C106.405 55.8564 105.993 52.9613 106.566 51.1571C106.777 50.5801 107.65 49.5731 106.977 49.1116C102.076 49.5626 97.3663 51.22 92.3749 51.5661C85.2545 52.6571 77.8629 52.5312 70.632 52.4892C63.5918 52.0696 37.8517 50.5487 34.2965 45.0102C33.5634 42.8808 35.2104 40.8354 37.1688 41.1186C51.0582 43.6256 65.1284 44.234 79.1885 43.0801C89.352 41.9997 99.3046 38.9578 108.976 35.6955C112.33 34.8249 111.426 33.4193 108.404 34.3109C102.056 35.9892 95.5485 37.2899 89.1411 38.2759C82.6534 38.748 76.0953 38.5696 69.5875 38.6221C62.226 38.2235 54.9248 37.9717 47.5733 37.1011C42.0698 36.2619 36.6365 34.8039 31.1531 34.0592C24.0025 32.171 16.6008 30.7445 9.71138 27.9962C6.72862 26.9158 3.60526 26.4647 0.97401 24.2934C-0.703164 22.5522 -0.221102 18.3773 2.54071 18.7759C30.0383 27.5557 59.2533 30.3878 87.8054 26.4962C93.1382 25.4787 99.2945 24.734 104.426 23.1396C104.919 22.5731 104.246 22.0906 103.884 21.6501C102.398 20.2864 100.871 18.4088 99.4753 17.1081C98.0492 15.8179 95.9201 14.0976 95.0464 12.5976C94.4337 11.2235 93.8613 9.78643 93.319 8.40181L93.2788 8.23398H93.2587ZM122.986 38.2445C123.187 38.2864 123.568 38.1815 123.97 37.9508C125.657 36.9333 127.093 35.4857 128.71 34.4263C132.617 31.8878 136.413 29.4438 140.27 26.5382C142.078 25.4158 143.885 24.199 145.743 23.1501C146.476 22.7095 146.376 22.1641 145.532 21.9228C143.504 21.4822 141.585 21.5766 139.627 20.9473C135.208 20.3179 130.558 19.7305 126.129 18.9228C125.356 18.7445 124.543 18.713 123.679 18.5242C122.735 18.5661 118.718 16.3529 119.25 18.5557C119.983 20.4647 121.861 21.6081 123.036 23.2864C123.91 24.3564 125.155 24.6291 126.059 25.6256C127.686 27.2305 127.977 28.4053 127.867 30.3668C127.907 31.7724 127.535 33.199 126.521 34.1536C125.718 34.9403 124.422 35.5906 123.619 36.713C123.016 37.4368 122.654 38.1606 122.936 38.234L123.006 38.255L122.986 38.2445Z" fill="white"/>
<path fill-rule="evenodd" clip-rule="evenodd" d="M8.75806 35.4966C9.77239 34.5106 11.2989 35.035 12.5041 35.3497C15.3563 35.8952 17.8268 36.7658 20.5686 37.5001C22.316 37.9826 24.1238 38.2134 25.7708 38.9896C26.8153 39.3253 28.1811 39.556 28.9143 40.563C30.25 42.7868 29.6072 44.8532 26.8755 45.1889C24.4853 45.5141 22.2759 44.4546 20.0463 43.8253C17.2845 43.1539 13.9503 42.1679 11.54 41.2239C8.40655 40.2483 6.08663 39.063 8.68775 35.6015L8.77814 35.5071L8.75806 35.4966Z" fill="white"/>
</g>
<defs>
<clipPath id="clip0_369_576">
<rect width="166" height="60" fill="white" transform="matrix(1 0 0 -1 0 60)"/>
</clipPath>
</defs>
</svg>
