<svg width="166" height="60" viewBox="0 0 166 60" fill="none" xmlns="http://www.w3.org/2000/svg">
<g clip-path="url(#clip0_369_628)">
<path fill-rule="evenodd" clip-rule="evenodd" d="M104.307 28.0134C84.768 24.2982 64.4454 25.2152 44.3957 25.9755C39.3863 26.3753 34.4362 26.6966 29.3912 26.9709C27.9429 27.1355 23.9188 27.4883 26.6846 25.9834C35.5402 21.8919 43.9328 17.8397 52.6577 13.6542C55.4117 12.3609 57.7859 10.9265 60.3856 9.62543C63.4482 8.05783 68.4695 6.0748 65.5731 2.99446C60.3856 -2.60188 54.3315 0.77631 48.9303 4.01341C43.5885 6.49022 38.6147 9.21001 33.6884 11.9925C25.7231 15.7861 18.4464 20.1284 10.6948 24.1571C6.4332 27.1904 -4.20296 30.4981 1.80362 35.0911C11.9412 40.7659 22.4824 46.4563 32.9761 51.8723C39.2676 54.3962 43.5173 59.3968 51.3164 60.0003C56.2427 60.0787 58.9136 56.05 57.1211 53.4007C56.0409 51.4647 53.0376 49.9128 50.6635 48.6274C43.8378 45.0611 37.3801 40.8991 30.3883 37.4425C29.9966 37.1604 29.8185 36.7214 30.4951 36.5647C65.9648 35.9376 102.147 40.0291 135.017 49.2623C144.656 51.7391 153.476 55.7521 162.937 58.3073C163.732 58.4249 164.777 58.1976 165.323 57.7352C168.362 54.8429 160.479 51.8253 157.547 50.3831C134.934 41.5026 109.459 36.0866 83.5691 33.2335C76.779 32.3478 70.0127 31.807 63.0921 31.47C60.4805 31.2035 56.3733 31.7208 54.106 30.9683C57.3942 30.1218 62.2137 30.8429 65.7393 30.6705C74.6542 30.7254 83.2486 31.1878 91.9617 32.2224C104.438 33.3903 116.427 36.1179 127.942 39.355C131.562 39.7704 140.169 44.387 142.543 42.647C149.368 37.709 110.053 28.5542 104.485 28.0212L104.319 27.9977L104.307 28.0134Z" fill="white"/>
</g>
<defs>
<clipPath id="clip0_369_628">
<rect width="166" height="60" fill="white" transform="matrix(-1 0 0 -1 166 60)"/>
</clipPath>
</defs>
</svg>
