<svg width="33" height="45" viewBox="0 0 33 45" fill="none" xmlns="http://www.w3.org/2000/svg">
<path fill-rule="evenodd" clip-rule="evenodd" d="M26.4884 0.0585859C26.6918 -0.0291573 26.9205 -0.017759 27.1144 0.0888593C27.3082 0.195419 27.4445 0.386105 27.4826 0.601555L32.3146 28.0078C33.0249 30.5876 30.9639 33.7967 27.3947 35.5674C23.4578 37.5288 19.3428 36.9505 18.0285 34.2549C17.3768 32.9173 17.5434 31.2946 18.4933 29.6894C19.3819 28.1914 20.8768 26.8603 22.7013 25.9531C24.1698 25.22 26.2511 24.7348 27.9015 24.7031L25.0334 8.43749L10.9845 14.6201L14.6769 35.5644C15.3871 38.1442 13.3271 41.3533 9.75797 43.124C8.73829 43.6299 7.71043 43.9669 6.71988 44.1416C3.88255 44.6419 1.36465 43.8112 0.39176 41.8115C-0.259902 40.474 -0.0940765 38.8512 0.855627 37.2461C1.74422 35.7481 3.23915 34.4169 5.06363 33.5098C6.53206 32.7766 8.61328 32.2905 10.2638 32.2588L6.22672 9.35937C6.16862 9.02887 6.34297 8.69437 6.6486 8.5664L26.4884 0.0585859Z" fill="#E63946"/>
</svg>
