<svg width="47" height="65" viewBox="0 0 47 65" fill="none" xmlns="http://www.w3.org/2000/svg">
<path d="M15.611 31.617L18.54 3.74965C18.6793 2.42429 18.0279 1.48835 16.8874 1.36848C16.4676 1.32436 15.0725 1.33993 14.8599 3.36285L12.3348 27.3867C10.7723 26.9756 8.68887 26.8765 7.10272 27.1612C2.87813 27.9161 -0.0291033 30.7419 0.486629 33.5748C0.741731 34.984 1.8079 36.1469 3.47625 36.83C4.19516 37.1242 4.99502 37.3211 5.8416 37.4101C6.8351 37.5145 7.88671 37.4699 8.94599 37.285C12.781 36.602 15.5813 34.1881 15.611 31.617Z" fill="#E63946"/>
<path d="M39.965 38.4147C39.1338 36.8926 38.1959 35.3107 36.9286 33.277C36.1154 31.9716 35.5982 30.9042 35.5248 29.6359L35.9307 28.2205C36.0892 27.6678 36.0937 27.1439 35.9355 26.7047C35.7351 26.1585 35.3104 25.7596 34.7247 25.5916C34.3208 25.4758 32.9569 25.2525 32.3965 27.2071L25.7404 50.4194C24.278 49.7521 22.2545 49.2886 20.6498 49.2953C18.6661 49.3027 16.7923 49.8157 15.3789 50.7307C13.8663 51.712 13.0334 53.0414 13.0383 54.4725C13.0442 56.6113 14.8997 58.398 17.5991 59.172C18.5416 59.4423 19.5919 59.5903 20.6935 59.5852C24.5744 59.5674 27.7399 57.6742 28.2078 55.1533L33.424 36.9622C33.9133 37.263 34.4583 37.6235 34.9388 38.0312C38.1351 40.7566 39.0588 44.4205 37.4726 48.0723C36.7007 49.8495 35.4002 51.2345 33.78 52.8706C33.7482 52.9053 33.7116 52.9312 33.6644 52.9688C32.7967 53.6828 33.0576 54.2974 33.2939 54.5912C33.5637 54.9458 33.8782 55.0433 34.0966 55.0694C34.6554 55.1275 35.0898 54.7561 35.3575 54.5338C37.0497 53.0788 38.4514 51.5186 39.6389 49.7657C42.0389 46.2233 42.1438 42.4021 39.9631 38.4215L39.965 38.4147Z" fill="#E63946"/>
</svg>
