<svg width="160" height="101" viewBox="0 0 160 101" fill="none" xmlns="http://www.w3.org/2000/svg">
<path d="M87.9006 37.9513L82.4313 47.5259C82.303 47.7939 82.3553 48.1135 82.5693 48.2898L89.9408 54.5238C90.1236 54.7084 90.0887 54.9514 89.8482 55.0492L82.6974 58.0998C82.4258 58.206 82.073 58.1337 81.859 57.9574L78.6933 55.1015C78.5105 54.9169 78.2222 54.9608 78.0856 55.1976L75.7493 59.2942C75.6127 59.531 75.2645 59.7244 74.9989 59.7288L69.0798 59.4127C68.8059 59.386 68.6853 59.1847 68.8219 58.9479L73.1979 50.7675C73.3345 50.5307 73.2738 50.1799 73.0599 50.0036L66.1011 43.6924C65.8872 43.5161 65.9221 43.2731 66.1626 43.1753L72.7102 40.4865C72.9818 40.3804 73.3346 40.4527 73.5485 40.629L76.6558 43.2669C76.8698 43.4432 77.1581 43.3993 77.2863 43.1314L79.3677 39.2032C79.5043 38.9664 79.8442 38.7418 80.1014 38.7063L87.6678 37.5799C87.9249 37.5443 88.0372 37.7145 87.9006 37.9513Z" fill="#FFD700"/>
<path d="M56.1104 61.3846L59.0834 72.7814C59.2449 73.3842 58.7229 73.847 58.1955 73.9884C56.2366 74.5132 54.1418 74.8323 52.1627 75.2818C53.2125 79.1996 54.3376 83.0972 55.3874 87.015C55.5489 87.6178 55.1426 88.2111 54.6152 88.3524L40.4858 91.9769C39.8078 92.1586 39.4606 91.7671 39.1484 91.2047C37.4811 87.6947 36.259 82.531 35.1743 78.7841L17.1163 82.8152C16.5136 82.9767 15.2771 82.5812 14.8142 82.0593C14.1549 81.1054 10.1949 76.2716 9.993 75.5182C9.8315 74.9155 10.1422 74.2669 10.3978 73.714C12.3322 69.4811 13.8844 65.0276 15.4569 60.6494C18.8573 51.3401 21.9913 41.9407 25.2962 32.5762C25.4765 32.0434 25.767 31.3196 26.4451 31.1379L40.6149 27.6641C41.1423 27.5228 41.7706 27.7582 41.9119 28.2856L41.9523 28.4363C44.2768 39.5224 46.1492 50.7296 48.7953 61.8103C49.5487 61.6085 52.6929 60.6852 52.6929 60.6852C54.2549 60.1859 55.8681 60.4805 56.1104 61.3846ZM28.4975 54.1674C27.4712 57.2687 26.3696 60.3902 25.0769 63.4013C24.5859 64.5827 23.7936 65.8447 23.3981 67.0812C23.343 67.1768 23.308 67.3476 23.3484 67.4983C23.4291 67.7997 23.7507 67.7943 23.9767 67.7337C26.1872 67.5452 29.3462 66.3757 31.5513 65.8656C30.5015 61.9478 29.4518 58.03 28.4975 54.1674Z" fill="#FFD700"/>
<path d="M153.878 41.8901C157.41 55.075 149.751 65.3642 134.983 69.321C120.292 73.2576 109.559 68.4621 106.51 57.0854C104.653 50.1539 107.392 41.991 112.161 38.6943C108.518 38.0555 105.277 34.4016 104.329 30.8605C101.684 20.9907 107.167 9.50836 121.859 5.57172C134.215 2.26091 142.53 6.17 145.598 17.622C146.749 21.9165 146.143 27.4893 143.458 29.8239C147.669 30.472 152.242 35.7874 153.878 41.8901ZM131.125 23.2768C130.257 20.037 128.787 18.1697 125.171 19.1387C121.705 20.0674 119.418 23.5872 120.488 27.5803C121.538 31.4981 123.95 32.063 126.813 31.2959C130.807 30.2259 132.013 26.5918 131.125 23.2768ZM137.319 47.2961C136.269 43.3783 134.568 41.25 130.273 42.4007C126.13 43.5111 123.512 47.6041 124.784 52.3506C126.035 57.0219 128.789 57.6567 132.18 56.7482C136.926 55.4764 138.368 51.2139 137.319 47.2961Z" fill="#FFD700"/>
</svg>
