<svg width="160" height="101" viewBox="0 0 160 101" fill="none" xmlns="http://www.w3.org/2000/svg">
<path d="M87.8997 37.9515L82.4303 47.526C82.302 47.794 82.3544 48.1137 82.5683 48.29L89.9398 54.524C90.1226 54.7086 90.0877 54.9515 89.8472 55.0493L82.6964 58.1C82.4248 58.2061 82.072 58.1338 81.8581 57.9575L78.6924 55.1016C78.5095 54.917 78.2212 54.9609 78.0847 55.1977L75.7483 59.2943C75.6118 59.5311 75.2635 59.7245 74.998 59.729L69.0788 59.4129C68.8049 59.3861 68.6843 59.1849 68.8209 58.948L73.1969 50.7676C73.3335 50.5308 73.2728 50.18 73.0589 50.0037L66.1001 43.6925C65.8862 43.5162 65.9211 43.2733 66.1616 43.1755L72.7092 40.4867C72.9808 40.3805 73.3336 40.4528 73.5476 40.6291L76.6549 43.2671C76.8688 43.4433 77.1571 43.3995 77.2853 43.1315L79.3667 39.2034C79.5033 38.9665 79.8432 38.742 80.1004 38.7064L87.6668 37.58C87.924 37.5445 88.0362 37.7146 87.8997 37.9515Z" fill="#1C3F95"/>
<path d="M56.1104 61.3847L59.0834 72.7816C59.2449 73.3843 58.7229 73.8472 58.1955 73.9885C56.2366 74.5134 54.1418 74.8324 52.1627 75.282C53.2125 79.1998 54.3376 83.0974 55.3874 87.0152C55.5489 87.6179 55.1426 88.2113 54.6152 88.3526L40.4858 91.977C39.8078 92.1587 39.4606 91.7672 39.1484 91.2049C37.4811 87.6948 36.259 82.5311 35.1743 78.7842L17.1163 82.8153C16.5136 82.9768 15.2771 82.5814 14.8142 82.0594C14.1549 81.1055 10.1949 76.2718 9.993 75.5183C9.8315 74.9156 10.1422 74.2671 10.3978 73.7141C12.3322 69.4812 13.8844 65.0277 15.4569 60.6496C18.8573 51.3402 21.9913 41.9408 25.2962 32.5764C25.4765 32.0436 25.767 31.3197 26.4451 31.138L40.6149 27.6642C41.1423 27.5229 41.7706 27.7583 41.9119 28.2857L41.9523 28.4364C44.2768 39.5225 46.1492 50.7298 48.7953 61.8105C49.5487 61.6086 52.6929 60.6854 52.6929 60.6854C54.2549 60.1861 55.8681 60.4806 56.1104 61.3847ZM28.4975 54.1675C27.4712 57.2688 26.3696 60.3903 25.0769 63.4015C24.5859 64.5828 23.7936 65.8449 23.3981 67.0814C23.343 67.1769 23.308 67.3478 23.3484 67.4985C23.4291 67.7998 23.7507 67.7944 23.9767 67.7338C26.1872 67.5453 29.3462 66.3759 31.5513 65.8657C30.5015 61.9479 29.4518 58.0302 28.4975 54.1675Z" fill="#1C3F95"/>
<path d="M153.879 41.8903C157.411 55.0752 149.751 65.3643 134.984 69.3211C120.293 73.2578 109.56 68.4622 106.511 57.0856C104.654 50.1541 107.393 41.9911 112.162 38.6944C108.519 38.0557 105.278 34.4018 104.33 30.8607C101.685 20.9909 107.168 9.5085 121.86 5.57187C134.216 2.26105 142.531 6.17015 145.599 17.6222C146.75 21.9167 146.144 27.4895 143.459 29.824C147.67 30.4722 152.243 35.7876 153.879 41.8903ZM131.126 23.2769C130.258 20.0372 128.788 18.1699 125.172 19.1389C121.706 20.0675 119.419 23.5873 120.489 27.5805C121.539 31.4983 123.951 32.0632 126.814 31.296C130.808 30.2261 132.014 26.592 131.126 23.2769ZM137.32 47.2963C136.27 43.3785 134.569 41.2502 130.274 42.4009C126.131 43.5112 123.513 47.6042 124.785 52.3508C126.036 57.022 128.79 57.6568 132.181 56.7484C136.927 55.4765 138.369 51.2141 137.32 47.2963Z" fill="#1C3F95"/>
</svg>
