<svg width="50" height="68" viewBox="0 0 50 68" fill="none" xmlns="http://www.w3.org/2000/svg">
<path fill-rule="evenodd" clip-rule="evenodd" d="M40.8094 0.0897164C41.1226 -0.0449638 41.4746 -0.0269449 41.7732 0.136591C42.0718 0.300234 42.281 0.593761 42.3396 0.924677L49.785 43.0077C50.8792 46.969 47.7046 51.8972 42.2059 54.6161C36.1407 57.6279 29.8013 56.7393 27.7762 52.6005C26.7721 50.5465 27.0275 48.0546 28.491 45.5897C29.86 43.2894 32.1625 41.2454 34.9734 39.8524C37.2359 38.7265 40.4431 37.9811 42.9861 37.9325L38.5672 12.9569L16.9226 22.4501L22.6121 54.6112C23.7063 58.5725 20.5319 63.5007 15.033 66.2196C13.4619 66.9964 11.8785 67.5139 10.3523 67.7821C5.98101 68.5503 2.1022 67.2746 0.603313 64.204C-0.400773 62.15 -0.144427 59.6581 1.31913 57.1932C2.68817 54.8929 4.99057 52.8489 7.80156 51.4559C10.064 50.3301 13.2704 49.5846 15.8133 49.536L9.59257 14.3729C9.50282 13.8654 9.77126 13.3519 10.242 13.1551L40.8094 0.0897164Z" fill="#1C3F95"/>
</svg>
