<svg width="50" height="68" viewBox="0 0 50 68" fill="none" xmlns="http://www.w3.org/2000/svg">
<path fill-rule="evenodd" clip-rule="evenodd" d="M20.0261 0.0120039C21.4137 0.156886 22.2064 1.28796 22.0369 2.88993L18.4734 36.5735C18.4372 39.6813 15.0301 42.5995 10.364 43.4251C9.07526 43.6485 7.79543 43.7027 6.58669 43.5765C5.5568 43.4689 4.58334 43.2308 3.70876 42.8753C1.67917 42.0496 0.382497 40.6438 0.0720408 38.9407C-0.555446 35.5165 2.98183 32.1003 8.12185 31.1878C10.0515 30.8438 12.5861 30.9635 14.4871 31.4602L17.5593 2.42216C17.8181 -0.0222593 19.5151 -0.0412892 20.0261 0.0120039Z" fill="#1C3F95"/>
<path fill-rule="evenodd" clip-rule="evenodd" d="M38.8955 28.8648C39.5774 26.5023 41.237 26.7716 41.7285 26.9116C42.441 27.1146 42.9574 27.5973 43.2012 28.2573C43.3936 28.7882 43.3881 29.4214 43.1953 30.0894L42.7022 31.8003C42.7915 33.3334 43.4208 34.6238 44.4102 36.2017C45.952 38.6598 47.0932 40.5719 48.1045 42.4116L48.1016 42.4195C50.7548 47.2309 50.6271 51.8505 47.7071 56.1323C46.2624 58.251 44.5567 60.1365 42.4981 61.895C42.1723 62.1637 41.6438 62.6128 40.9639 62.5425C40.6982 62.5109 40.3156 62.3928 39.9873 61.9644C39.6999 61.6091 39.3831 60.8662 40.4385 60.0034C40.4958 59.9582 40.5405 59.9271 40.5791 59.8853C42.5503 57.9078 44.1321 56.2334 45.0713 54.0855C47.0013 49.6715 45.8781 45.2421 41.9893 41.9478C41.4047 41.455 40.7409 41.0193 40.1455 40.6558L33.7998 62.6441C33.2306 65.691 29.3789 67.9799 24.6573 68.0015C23.317 68.0076 22.0383 67.8281 20.8916 67.5015C17.6074 66.5658 15.35 64.4061 15.3428 61.8208C15.3369 60.0912 16.3502 58.4844 18.1905 57.2984C19.9101 56.1925 22.19 55.572 24.6035 55.563C26.5558 55.5549 29.0176 56.1158 30.7969 56.9224L38.8955 28.8648Z" fill="#1C3F95"/>
</svg>
