<svg width="50" height="68" viewBox="0 0 50 68" fill="none" xmlns="http://www.w3.org/2000/svg">
<path fill-rule="evenodd" clip-rule="evenodd" d="M40.8093 0.0897415C41.1226 -0.0449549 41.4745 -0.0269755 41.7732 0.136616C42.0719 0.300305 42.281 0.593672 42.3396 0.924702L49.7849 43.0077C50.8791 46.969 47.7047 51.8972 42.2058 54.6161C36.1405 57.628 29.8011 56.7387 27.7761 52.5995C26.7722 50.5457 27.0277 48.0544 28.491 45.5897C29.86 43.2895 32.1626 41.2455 34.9734 39.8524C37.2359 38.7265 40.4431 37.9811 42.9861 37.9325L38.5672 12.956L16.9226 22.4501L22.6121 54.6112C23.7063 58.5726 20.5319 63.5007 15.033 66.2196C13.4619 66.9964 11.8785 67.5129 10.3523 67.7812C5.98076 68.5494 2.10201 67.2739 0.603283 64.203C-0.400741 62.149 -0.144446 59.6571 1.3191 57.1923C2.68818 54.8921 4.99073 52.8489 7.80153 51.456C10.064 50.3301 13.2703 49.5846 15.8132 49.536L9.59254 14.3729C9.50272 13.8653 9.77188 13.3508 10.2429 13.1542L40.8093 0.0897415Z" fill="#E63946"/>
</svg>
