<svg width="50" height="68" viewBox="0 0 50 68" fill="none" xmlns="http://www.w3.org/2000/svg">
<path fill-rule="evenodd" clip-rule="evenodd" d="M20.0271 0.012003C21.4145 0.156946 22.2073 1.28897 22.0378 2.89091L18.4743 36.5745C18.4382 39.6822 15.0309 42.6004 10.3649 43.4261C9.07615 43.6495 7.79637 43.7027 6.5876 43.5765C5.55758 43.4689 4.58435 43.2309 3.70967 42.8753C1.67985 42.0496 0.382351 40.6439 0.071976 38.9407C-0.555203 35.5166 2.98201 32.1013 8.12178 31.1888C10.0516 30.8447 12.5869 30.9643 14.488 31.4612L17.5603 2.42314C17.8189 -0.0220106 19.5163 -0.0413281 20.0271 0.012003Z" fill="#E63946"/>
<path fill-rule="evenodd" clip-rule="evenodd" d="M38.8965 28.863C39.5784 26.5005 41.2381 26.7709 41.7295 26.9109C42.4419 27.1138 42.9583 27.5956 43.2022 28.2556C43.3946 28.7865 43.3891 29.4197 43.1963 30.0876L42.7031 31.7986C42.7925 33.3316 43.4218 34.622 44.4112 36.1999C45.953 38.6581 47.0942 40.5701 48.1055 42.4099L48.1026 42.4187C50.7557 47.2301 50.628 51.8489 47.708 56.1306C46.2633 58.2492 44.5577 60.1347 42.499 61.8933C42.1733 62.162 41.6448 62.611 40.9649 62.5407C40.6992 62.5091 40.3165 62.391 39.9883 61.9626C39.7009 61.6073 39.3841 60.8644 40.4395 60.0017C40.4968 59.9564 40.5415 59.9253 40.5801 59.8835C42.5514 57.9059 44.1341 56.2319 45.0733 54.0837C47.0032 49.6698 45.8791 45.2404 41.9903 41.946C41.4056 41.4533 40.7418 41.0176 40.1465 40.654L33.8008 62.6423C33.2316 65.6893 29.3799 67.9781 24.6582 67.9997C23.318 68.0059 22.0393 67.8264 20.8926 67.4997C17.6084 66.5641 15.351 64.4043 15.3438 61.8191C15.3379 60.0895 16.3512 58.4827 18.1914 57.2966C19.9111 56.1907 22.191 55.5702 24.6045 55.5613C26.5569 55.5532 29.0196 56.114 30.7989 56.9206L38.8965 28.863Z" fill="#E63946"/>
</svg>
